<svg width="241" height="136" viewBox="0 0 241 136" fill="none" xmlns="http://www.w3.org/2000/svg">
<mask id="path-1-outside-1_3_128" maskUnits="userSpaceOnUse" x="36.6144" y="73" width="111" height="57" fill="black">
<rect fill="white" x="36.6144" y="73" width="111" height="57"/>
<path d="M59.5312 124.448C56.2459 124.448 53.3019 123.915 50.6992 122.848C48.0965 121.781 46.0059 120.203 44.4272 118.112C42.8912 116.021 42.0805 113.504 41.9952 110.56H53.6432C53.8139 112.224 54.3899 113.504 55.3712 114.4C56.3525 115.253 57.6325 115.68 59.2112 115.68C60.8325 115.68 62.1125 115.317 63.0512 114.592C63.9899 113.824 64.4592 112.779 64.4592 111.456C64.4592 110.347 64.0752 109.429 63.3072 108.704C62.5819 107.979 61.6645 107.381 60.5552 106.912C59.4885 106.443 57.9525 105.909 55.9472 105.312C53.0459 104.416 50.6779 103.52 48.8432 102.624C47.0085 101.728 45.4299 100.405 44.1072 98.656C42.7845 96.9067 42.1232 94.624 42.1232 91.808C42.1232 87.6267 43.6379 84.3627 46.6672 82.016C49.6965 79.6267 53.6432 78.432 58.5072 78.432C63.4565 78.432 67.4459 79.6267 70.4752 82.016C73.5045 84.3627 75.1259 87.648 75.3392 91.872H63.4992C63.4139 90.4213 62.8805 89.2907 61.8992 88.48C60.9179 87.6267 59.6592 87.2 58.1232 87.2C56.8005 87.2 55.7339 87.5627 54.9232 88.288C54.1125 88.9707 53.7072 89.9733 53.7072 91.296C53.7072 92.7467 54.3899 93.8773 55.7552 94.688C57.1205 95.4987 59.2539 96.3733 62.1552 97.312C65.0565 98.2933 67.4032 99.232 69.1952 100.128C71.0299 101.024 72.6085 102.325 73.9312 104.032C75.2539 105.739 75.9152 107.936 75.9152 110.624C75.9152 113.184 75.2539 115.509 73.9312 117.6C72.6512 119.691 70.7739 121.355 68.2992 122.592C65.8245 123.829 62.9019 124.448 59.5312 124.448ZM93.5942 79.072V124H82.6502V79.072H93.5942ZM129.045 124L119.893 110.24L111.829 124H99.4132L113.813 101.152L99.0932 79.072H111.829L120.853 92.64L128.789 79.072H141.205L126.933 101.728L141.781 124H129.045Z"/>
</mask>
<path d="M59.5312 124.448C56.2459 124.448 53.3019 123.915 50.6992 122.848C48.0965 121.781 46.0059 120.203 44.4272 118.112C42.8912 116.021 42.0805 113.504 41.9952 110.56H53.6432C53.8139 112.224 54.3899 113.504 55.3712 114.4C56.3525 115.253 57.6325 115.68 59.2112 115.68C60.8325 115.68 62.1125 115.317 63.0512 114.592C63.9899 113.824 64.4592 112.779 64.4592 111.456C64.4592 110.347 64.0752 109.429 63.3072 108.704C62.5819 107.979 61.6645 107.381 60.5552 106.912C59.4885 106.443 57.9525 105.909 55.9472 105.312C53.0459 104.416 50.6779 103.52 48.8432 102.624C47.0085 101.728 45.4299 100.405 44.1072 98.656C42.7845 96.9067 42.1232 94.624 42.1232 91.808C42.1232 87.6267 43.6379 84.3627 46.6672 82.016C49.6965 79.6267 53.6432 78.432 58.5072 78.432C63.4565 78.432 67.4459 79.6267 70.4752 82.016C73.5045 84.3627 75.1259 87.648 75.3392 91.872H63.4992C63.4139 90.4213 62.8805 89.2907 61.8992 88.48C60.9179 87.6267 59.6592 87.2 58.1232 87.2C56.8005 87.2 55.7339 87.5627 54.9232 88.288C54.1125 88.9707 53.7072 89.9733 53.7072 91.296C53.7072 92.7467 54.3899 93.8773 55.7552 94.688C57.1205 95.4987 59.2539 96.3733 62.1552 97.312C65.0565 98.2933 67.4032 99.232 69.1952 100.128C71.0299 101.024 72.6085 102.325 73.9312 104.032C75.2539 105.739 75.9152 107.936 75.9152 110.624C75.9152 113.184 75.2539 115.509 73.9312 117.6C72.6512 119.691 70.7739 121.355 68.2992 122.592C65.8245 123.829 62.9019 124.448 59.5312 124.448ZM93.5942 79.072V124H82.6502V79.072H93.5942ZM129.045 124L119.893 110.24L111.829 124H99.4132L113.813 101.152L99.0932 79.072H111.829L120.853 92.64L128.789 79.072H141.205L126.933 101.728L141.781 124H129.045Z" fill="white"/>
<path d="M50.6992 122.848L48.8031 127.475L48.8031 127.475L50.6992 122.848ZM44.4272 118.112L40.3978 121.072C40.4107 121.09 40.4238 121.108 40.437 121.125L44.4272 118.112ZM41.9952 110.56V105.56C40.644 105.56 39.3503 106.107 38.4088 107.076C37.4673 108.045 36.9582 109.354 36.9973 110.705L41.9952 110.56ZM53.6432 110.56L58.6171 110.05C58.3555 107.499 56.2071 105.56 53.6432 105.56V110.56ZM55.3712 114.4L51.9999 118.092C52.0297 118.12 52.0598 118.147 52.0903 118.173L55.3712 114.4ZM63.0512 114.592L66.1084 118.548C66.1452 118.52 66.1815 118.491 66.2174 118.462L63.0512 114.592ZM63.3072 108.704L59.7717 112.24C59.8053 112.273 59.8395 112.306 59.8741 112.339L63.3072 108.704ZM60.5552 106.912L58.5415 111.489C58.5633 111.498 58.5851 111.508 58.607 111.517L60.5552 106.912ZM55.9472 105.312L54.4718 110.089C54.4878 110.094 54.5038 110.099 54.5198 110.104L55.9472 105.312ZM48.8432 102.624L46.649 107.117L48.8432 102.624ZM44.1072 98.656L48.0955 95.6405L48.0955 95.6405L44.1072 98.656ZM46.6672 82.016L49.7292 85.9687C49.7407 85.9598 49.7522 85.9509 49.7636 85.9418L46.6672 82.016ZM70.4752 82.016L67.3788 85.9418C67.3902 85.9509 67.4017 85.9598 67.4132 85.9687L70.4752 82.016ZM75.3392 91.872V96.872C76.7091 96.872 78.0189 96.31 78.9628 95.3172C79.9067 94.3244 80.4019 92.9879 80.3328 91.6198L75.3392 91.872ZM63.4992 91.872L58.5078 92.1656C58.6633 94.8084 60.8518 96.872 63.4992 96.872V91.872ZM61.8992 88.48L58.6183 92.253C58.6501 92.2807 58.6823 92.308 58.7148 92.3348L61.8992 88.48ZM54.9232 88.288L58.1439 92.1126C58.1821 92.0803 58.2199 92.0476 58.2572 92.0142L54.9232 88.288ZM55.7552 94.688L58.3079 90.3887L58.3079 90.3887L55.7552 94.688ZM62.1552 97.312L63.7572 92.5756C63.7363 92.5685 63.7153 92.5616 63.6943 92.5548L62.1552 97.312ZM69.1952 100.128L66.9591 104.6C66.9731 104.607 66.987 104.614 67.001 104.621L69.1952 100.128ZM73.9312 104.032L69.9791 107.095L69.9791 107.095L73.9312 104.032ZM73.9312 117.6L69.7058 114.927C69.6927 114.948 69.6797 114.968 69.6669 114.989L73.9312 117.6ZM68.2992 122.592L66.0631 118.12L66.0631 118.12L68.2992 122.592ZM59.5312 124.448V119.448C56.7885 119.448 54.504 119.004 52.5953 118.221L50.6992 122.848L48.8031 127.475C52.0997 128.826 55.7033 129.448 59.5312 129.448V124.448ZM50.6992 122.848L52.5953 118.221C50.7594 117.469 49.4156 116.421 48.4174 115.099L44.4272 118.112L40.437 121.125C42.5961 123.984 45.4337 126.094 48.8031 127.475L50.6992 122.848ZM44.4272 118.112L48.4566 115.152C47.601 113.987 47.0531 112.486 46.9931 110.415L41.9952 110.56L36.9973 110.705C37.1079 114.522 38.1814 118.056 40.3978 121.072L44.4272 118.112ZM41.9952 110.56V115.56H53.6432V110.56V105.56H41.9952V110.56ZM53.6432 110.56L48.6693 111.07C48.9317 113.628 49.8949 116.17 51.9999 118.092L55.3712 114.4L58.7426 110.708C58.7838 110.745 58.7868 110.77 58.7628 110.716C58.7321 110.648 58.658 110.448 58.6171 110.05L53.6432 110.56ZM55.3712 114.4L52.0903 118.173C54.1661 119.978 56.6962 120.68 59.2112 120.68V115.68V110.68C58.87 110.68 58.7002 110.634 58.6483 110.617C58.6094 110.604 58.627 110.605 58.6521 110.627L55.3712 114.4ZM59.2112 115.68V120.68C61.5381 120.68 64.0226 120.16 66.1084 118.548L63.0512 114.592L59.994 110.636C60.2025 110.474 60.127 110.68 59.2112 110.68V115.68ZM63.0512 114.592L66.2174 118.462C68.4314 116.65 69.4592 114.124 69.4592 111.456H64.4592H59.4592C59.4592 111.52 59.4501 111.397 59.5459 111.184C59.6472 110.958 59.7903 110.8 59.885 110.722L63.0512 114.592ZM64.4592 111.456H69.4592C69.4592 109.048 68.5634 106.791 66.7403 105.069L63.3072 108.704L59.8741 112.339C59.7825 112.253 59.6533 112.092 59.559 111.867C59.467 111.647 59.4592 111.488 59.4592 111.456H64.4592ZM63.3072 108.704L66.8427 105.168C65.59 103.916 64.1041 102.984 62.5034 102.307L60.5552 106.912L58.607 111.517C59.225 111.778 59.5737 112.042 59.7717 112.24L63.3072 108.704ZM60.5552 106.912L62.5689 102.335C61.2181 101.741 59.4494 101.138 57.3746 100.52L55.9472 105.312L54.5198 110.104C56.4556 110.681 57.759 111.144 58.5415 111.489L60.5552 106.912ZM55.9472 105.312L57.4226 100.535C54.6613 99.6819 52.5578 98.8737 51.0374 98.1312L48.8432 102.624L46.649 107.117C48.7979 108.166 51.4305 109.15 54.4718 110.089L55.9472 105.312ZM48.8432 102.624L51.0374 98.1312C49.9601 97.6051 48.9804 96.8108 48.0955 95.6405L44.1072 98.656L40.1189 101.672C41.8794 104 44.0569 105.851 46.649 107.117L48.8432 102.624ZM44.1072 98.656L48.0955 95.6405C47.5951 94.9787 47.1232 93.8468 47.1232 91.808H42.1232H37.1232C37.1232 95.4012 37.974 98.8347 40.1189 101.672L44.1072 98.656ZM42.1232 91.808H47.1232C47.1232 89.0109 48.0451 87.2733 49.7292 85.9687L46.6672 82.016L43.6052 78.0633C39.2307 81.452 37.1232 86.2424 37.1232 91.808H42.1232ZM46.6672 82.016L49.7636 85.9418C51.7021 84.4129 54.4684 83.432 58.5072 83.432V78.432V73.432C52.818 73.432 47.6909 74.8405 43.5708 78.0902L46.6672 82.016ZM58.5072 78.432V83.432C62.6548 83.432 65.4548 84.4243 67.3788 85.9418L70.4752 82.016L73.5716 78.0902C69.437 74.829 64.2583 73.432 58.5072 73.432V78.432ZM70.4752 82.016L67.4132 85.9687C69.1618 87.3233 70.1972 89.1864 70.3456 92.1242L75.3392 91.872L80.3328 91.6198C80.0546 86.1096 77.8472 81.402 73.5372 78.0632L70.4752 82.016ZM75.3392 91.872V86.872H63.4992V91.872V96.872H75.3392V91.872ZM63.4992 91.872L68.4906 91.5784C68.3364 88.9572 67.2919 86.4494 65.0836 84.6252L61.8992 88.48L58.7148 92.3348C58.6895 92.3139 58.6507 92.277 58.6091 92.2237C58.5673 92.1701 58.5351 92.1159 58.513 92.0691C58.4668 91.971 58.4967 91.9757 58.5078 92.1656L63.4992 91.872ZM61.8992 88.48L65.1801 84.707C63.1291 82.9235 60.6349 82.2 58.1232 82.2V87.2V92.2C58.4287 92.2 58.5752 92.2422 58.614 92.2553C58.6341 92.2621 58.6373 92.2651 58.6305 92.2612C58.6278 92.2596 58.6247 92.2577 58.6218 92.2556C58.6189 92.2536 58.6177 92.2525 58.6183 92.253L61.8992 88.48ZM58.1232 87.2V82.2C55.8488 82.2 53.5049 82.8478 51.5892 84.5618L54.9232 88.288L58.2572 92.0142C58.2061 92.0599 58.1478 92.1024 58.0863 92.138C58.0252 92.1734 57.974 92.1945 57.9407 92.2059C57.8745 92.2284 57.9163 92.2 58.1232 92.2V87.2ZM54.9232 88.288L51.7025 84.4634C49.4913 86.3255 48.7072 88.8961 48.7072 91.296H53.7072H58.7072C58.7072 91.1378 58.732 91.2152 58.6468 91.4259C58.5504 91.6644 58.3753 91.9177 58.1439 92.1126L54.9232 88.288ZM53.7072 91.296H48.7072C48.7072 94.7038 50.4932 97.3786 53.2025 98.9873L55.7552 94.688L58.3079 90.3887C58.1912 90.3194 58.337 90.3784 58.4995 90.6477C58.5772 90.7762 58.6342 90.9139 58.669 91.0456C58.7031 91.1745 58.7072 91.2642 58.7072 91.296H53.7072ZM55.7552 94.688L53.2025 98.9873C55.0589 100.09 57.6214 101.1 60.6161 102.069L62.1552 97.312L63.6943 92.5548C60.8864 91.6463 59.1821 90.9078 58.3079 90.3887L55.7552 94.688ZM62.1552 97.312L60.5532 102.048C63.338 102.99 65.4492 103.845 66.9591 104.6L69.1952 100.128L71.4313 95.6559C69.3572 94.6188 66.7751 93.5963 63.7572 92.5756L62.1552 97.312ZM69.1952 100.128L67.001 104.621C68.1086 105.162 69.0976 105.957 69.9791 107.095L73.9312 104.032L77.8833 100.969C76.1195 98.6932 73.9512 96.8863 71.3894 95.6352L69.1952 100.128ZM73.9312 104.032L69.9791 107.095C70.4703 107.729 70.9152 108.768 70.9152 110.624H75.9152H80.9152C80.9152 107.104 80.0374 103.749 77.8833 100.969L73.9312 104.032ZM75.9152 110.624H70.9152C70.9152 112.272 70.5043 113.665 69.7058 114.927L73.9312 117.6L78.1566 120.273C80.0035 117.354 80.9152 114.096 80.9152 110.624H75.9152ZM73.9312 117.6L69.6669 114.989C68.9363 116.183 67.8115 117.246 66.0631 118.12L68.2992 122.592L70.5353 127.064C73.7363 125.464 76.3661 123.199 78.1955 120.211L73.9312 117.6ZM68.2992 122.592L66.0631 118.12C64.418 118.942 62.2925 119.448 59.5312 119.448V124.448V129.448C63.5112 129.448 67.2311 128.716 70.5353 127.064L68.2992 122.592ZM93.5942 79.072H98.5942C98.5942 76.3106 96.3556 74.072 93.5942 74.072V79.072ZM93.5942 124V129C96.3556 129 98.5942 126.761 98.5942 124H93.5942ZM82.6502 124H77.6502C77.6502 126.761 79.8888 129 82.6502 129V124ZM82.6502 79.072V74.072C79.8888 74.072 77.6502 76.3106 77.6502 79.072H82.6502ZM93.5942 79.072H88.5942V124H93.5942H98.5942V79.072H93.5942ZM93.5942 124V119H82.6502V124V129H93.5942V124ZM82.6502 124H87.6502V79.072H82.6502H77.6502V124H82.6502ZM82.6502 79.072V84.072H93.5942V79.072V74.072H82.6502V79.072ZM129.045 124L124.882 126.769C125.809 128.163 127.372 129 129.045 129V124ZM119.893 110.24L124.056 107.471C123.102 106.035 121.475 105.193 119.751 105.242C118.028 105.291 116.451 106.224 115.579 107.712L119.893 110.24ZM111.829 124V129C113.604 129 115.246 128.059 116.143 126.528L111.829 124ZM99.4132 124L95.1832 121.334C94.2123 122.875 94.1557 124.821 95.0354 126.416C95.9152 128.01 97.5922 129 99.4132 129V124ZM113.813 101.152L118.043 103.818C119.095 102.15 119.067 100.019 117.973 98.3785L113.813 101.152ZM99.0932 79.072V74.072C97.2492 74.072 95.5549 75.0869 94.6848 76.7127C93.8147 78.3385 93.9101 80.3112 94.933 81.8455L99.0932 79.072ZM111.829 79.072L115.992 76.303C115.066 74.9094 113.503 74.072 111.829 74.072V79.072ZM120.853 92.64L116.69 95.409C117.645 96.8452 119.273 97.6876 120.997 97.6379C122.722 97.5882 124.298 96.6533 125.169 95.1644L120.853 92.64ZM128.789 79.072V74.072C127.013 74.072 125.37 75.0144 124.473 76.5476L128.789 79.072ZM141.205 79.072L145.436 81.737C146.406 80.1964 146.463 78.25 145.583 76.6559C144.703 75.0618 143.026 74.072 141.205 74.072V79.072ZM126.933 101.728L122.703 99.063C121.652 100.731 121.679 102.861 122.773 104.501L126.933 101.728ZM141.781 124V129C143.625 129 145.319 127.985 146.19 126.359C147.06 124.734 146.964 122.761 145.941 121.226L141.781 124ZM129.045 124L133.208 121.231L124.056 107.471L119.893 110.24L115.73 113.009L124.882 126.769L129.045 124ZM119.893 110.24L115.579 107.712L107.515 121.472L111.829 124L116.143 126.528L124.207 112.768L119.893 110.24ZM111.829 124V119H99.4132V124V129H111.829V124ZM99.4132 124L103.643 126.666L118.043 103.818L113.813 101.152L109.583 98.486L95.1832 121.334L99.4132 124ZM113.813 101.152L117.973 98.3785L103.253 76.2985L99.0932 79.072L94.933 81.8455L109.653 103.925L113.813 101.152ZM99.0932 79.072V84.072H111.829V79.072V74.072H99.0932V79.072ZM111.829 79.072L107.666 81.841L116.69 95.409L120.853 92.64L125.016 89.871L115.992 76.303L111.829 79.072ZM120.853 92.64L125.169 95.1644L133.105 81.5964L128.789 79.072L124.473 76.5476L116.537 90.1156L120.853 92.64ZM128.789 79.072V84.072H141.205V79.072V74.072H128.789V79.072ZM141.205 79.072L136.975 76.407L122.703 99.063L126.933 101.728L131.164 104.393L145.436 81.737L141.205 79.072ZM126.933 101.728L122.773 104.501L137.621 126.774L141.781 124L145.941 121.226L131.093 98.9545L126.933 101.728ZM141.781 124V119H129.045V124V129H141.781V124Z" fill="black" mask="url(#path-1-outside-1_3_128)"/>
<mask id="path-3-outside-2_3_128" maskUnits="userSpaceOnUse" x="35" y="73" width="111" height="57" fill="black">
<rect fill="white" x="35" y="73" width="111" height="57"/>
<path d="M57.9168 124.448C54.6315 124.448 51.6875 123.915 49.0848 122.848C46.4821 121.781 44.3915 120.203 42.8128 118.112C41.2768 116.021 40.4661 113.504 40.3808 110.56H52.0288C52.1995 112.224 52.7755 113.504 53.7568 114.4C54.7381 115.253 56.0181 115.68 57.5968 115.68C59.2181 115.68 60.4981 115.317 61.4368 114.592C62.3755 113.824 62.8448 112.779 62.8448 111.456C62.8448 110.347 62.4608 109.429 61.6928 108.704C60.9675 107.979 60.0501 107.381 58.9408 106.912C57.8741 106.443 56.3381 105.909 54.3328 105.312C51.4315 104.416 49.0635 103.52 47.2288 102.624C45.3941 101.728 43.8155 100.405 42.4928 98.656C41.1701 96.9067 40.5088 94.624 40.5088 91.808C40.5088 87.6267 42.0235 84.3627 45.0528 82.016C48.0821 79.6267 52.0288 78.432 56.8928 78.432C61.8421 78.432 65.8315 79.6267 68.8608 82.016C71.8901 84.3627 73.5115 87.648 73.7248 91.872H61.8848C61.7995 90.4213 61.2661 89.2907 60.2848 88.48C59.3035 87.6267 58.0448 87.2 56.5088 87.2C55.1861 87.2 54.1195 87.5627 53.3088 88.288C52.4981 88.9707 52.0928 89.9733 52.0928 91.296C52.0928 92.7467 52.7755 93.8773 54.1408 94.688C55.5061 95.4987 57.6395 96.3733 60.5408 97.312C63.4421 98.2933 65.7888 99.232 67.5808 100.128C69.4155 101.024 70.9941 102.325 72.3168 104.032C73.6395 105.739 74.3008 107.936 74.3008 110.624C74.3008 113.184 73.6395 115.509 72.3168 117.6C71.0368 119.691 69.1595 121.355 66.6848 122.592C64.2101 123.829 61.2875 124.448 57.9168 124.448ZM91.9798 79.072V124H81.0358V79.072H91.9798ZM127.431 124L118.279 110.24L110.215 124H97.7988L112.199 101.152L97.4788 79.072H110.215L119.239 92.64L127.175 79.072H139.591L125.319 101.728L140.167 124H127.431Z"/>
</mask>
<path d="M57.9168 124.448C54.6315 124.448 51.6875 123.915 49.0848 122.848C46.4821 121.781 44.3915 120.203 42.8128 118.112C41.2768 116.021 40.4661 113.504 40.3808 110.56H52.0288C52.1995 112.224 52.7755 113.504 53.7568 114.4C54.7381 115.253 56.0181 115.68 57.5968 115.68C59.2181 115.68 60.4981 115.317 61.4368 114.592C62.3755 113.824 62.8448 112.779 62.8448 111.456C62.8448 110.347 62.4608 109.429 61.6928 108.704C60.9675 107.979 60.0501 107.381 58.9408 106.912C57.8741 106.443 56.3381 105.909 54.3328 105.312C51.4315 104.416 49.0635 103.52 47.2288 102.624C45.3941 101.728 43.8155 100.405 42.4928 98.656C41.1701 96.9067 40.5088 94.624 40.5088 91.808C40.5088 87.6267 42.0235 84.3627 45.0528 82.016C48.0821 79.6267 52.0288 78.432 56.8928 78.432C61.8421 78.432 65.8315 79.6267 68.8608 82.016C71.8901 84.3627 73.5115 87.648 73.7248 91.872H61.8848C61.7995 90.4213 61.2661 89.2907 60.2848 88.48C59.3035 87.6267 58.0448 87.2 56.5088 87.2C55.1861 87.2 54.1195 87.5627 53.3088 88.288C52.4981 88.9707 52.0928 89.9733 52.0928 91.296C52.0928 92.7467 52.7755 93.8773 54.1408 94.688C55.5061 95.4987 57.6395 96.3733 60.5408 97.312C63.4421 98.2933 65.7888 99.232 67.5808 100.128C69.4155 101.024 70.9941 102.325 72.3168 104.032C73.6395 105.739 74.3008 107.936 74.3008 110.624C74.3008 113.184 73.6395 115.509 72.3168 117.6C71.0368 119.691 69.1595 121.355 66.6848 122.592C64.2101 123.829 61.2875 124.448 57.9168 124.448ZM91.9798 79.072V124H81.0358V79.072H91.9798ZM127.431 124L118.279 110.24L110.215 124H97.7988L112.199 101.152L97.4788 79.072H110.215L119.239 92.64L127.175 79.072H139.591L125.319 101.728L140.167 124H127.431Z" fill="white"/>
<path d="M49.0848 122.848L47.1887 127.475L47.1887 127.475L49.0848 122.848ZM42.8128 118.112L38.7834 121.072C38.7963 121.09 38.8094 121.108 38.8226 121.125L42.8128 118.112ZM40.3808 110.56V105.56C39.0296 105.56 37.7359 106.107 36.7944 107.076C35.8529 108.045 35.3437 109.354 35.3829 110.705L40.3808 110.56ZM52.0288 110.56L57.0027 110.05C56.7411 107.499 54.5927 105.56 52.0288 105.56V110.56ZM53.7568 114.4L50.3854 118.092C50.4153 118.12 50.4454 118.147 50.4759 118.173L53.7568 114.4ZM61.4368 114.592L64.494 118.548C64.5308 118.52 64.5671 118.491 64.603 118.462L61.4368 114.592ZM61.6928 108.704L58.1573 112.24C58.1909 112.273 58.2251 112.306 58.2597 112.339L61.6928 108.704ZM58.9408 106.912L56.9271 111.489C56.9489 111.498 56.9707 111.508 56.9926 111.517L58.9408 106.912ZM54.3328 105.312L52.8574 110.089C52.8734 110.094 52.8894 110.099 52.9054 110.104L54.3328 105.312ZM47.2288 102.624L45.0346 107.117L47.2288 102.624ZM42.4928 98.656L46.4811 95.6405L46.4811 95.6405L42.4928 98.656ZM45.0528 82.016L48.1148 85.9687C48.1263 85.9598 48.1378 85.9509 48.1492 85.9418L45.0528 82.016ZM68.8608 82.016L65.7644 85.9418C65.7758 85.9509 65.7873 85.9598 65.7988 85.9687L68.8608 82.016ZM73.7248 91.872V96.872C75.0946 96.872 76.4045 96.31 77.3484 95.3172C78.2923 94.3244 78.7875 92.9879 78.7184 91.6198L73.7248 91.872ZM61.8848 91.872L56.8934 92.1656C57.0489 94.8084 59.2374 96.872 61.8848 96.872V91.872ZM60.2848 88.48L57.0039 92.253C57.0357 92.2807 57.0679 92.308 57.1004 92.3348L60.2848 88.48ZM53.3088 88.288L56.5295 92.1126C56.5677 92.0803 56.6055 92.0476 56.6428 92.0142L53.3088 88.288ZM54.1408 94.688L56.6935 90.3887L56.6935 90.3887L54.1408 94.688ZM60.5408 97.312L62.1428 92.5756C62.1219 92.5685 62.1009 92.5616 62.0799 92.5548L60.5408 97.312ZM67.5808 100.128L65.3447 104.6C65.3587 104.607 65.3726 104.614 65.3866 104.621L67.5808 100.128ZM72.3168 104.032L68.3647 107.095L68.3647 107.095L72.3168 104.032ZM72.3168 117.6L68.0914 114.927C68.0783 114.948 68.0653 114.968 68.0525 114.989L72.3168 117.6ZM66.6848 122.592L64.4487 118.12L64.4487 118.12L66.6848 122.592ZM57.9168 124.448V119.448C55.1741 119.448 52.8896 119.004 50.9809 118.221L49.0848 122.848L47.1887 127.475C50.4853 128.826 54.0889 129.448 57.9168 129.448V124.448ZM49.0848 122.848L50.9809 118.221C49.145 117.469 47.8012 116.421 46.803 115.099L42.8128 118.112L38.8226 121.125C40.9817 123.984 43.8193 126.094 47.1887 127.475L49.0848 122.848ZM42.8128 118.112L46.8422 115.152C45.9866 113.987 45.4387 112.486 45.3787 110.415L40.3808 110.56L35.3829 110.705C35.4935 114.522 36.567 118.056 38.7834 121.072L42.8128 118.112ZM40.3808 110.56V115.56H52.0288V110.56V105.56H40.3808V110.56ZM52.0288 110.56L47.0549 111.07C47.3173 113.628 48.2805 116.17 50.3854 118.092L53.7568 114.4L57.1281 110.708C57.1694 110.745 57.1724 110.77 57.1484 110.716C57.1177 110.648 57.0436 110.448 57.0027 110.05L52.0288 110.56ZM53.7568 114.4L50.4759 118.173C52.5517 119.978 55.0818 120.68 57.5968 120.68V115.68V110.68C57.2556 110.68 57.0858 110.634 57.0339 110.617C56.995 110.604 57.0126 110.605 57.0377 110.627L53.7568 114.4ZM57.5968 115.68V120.68C59.9237 120.68 62.4082 120.16 64.494 118.548L61.4368 114.592L58.3796 110.636C58.5881 110.474 58.5126 110.68 57.5968 110.68V115.68ZM61.4368 114.592L64.603 118.462C66.817 116.65 67.8448 114.124 67.8448 111.456H62.8448H57.8448C57.8448 111.52 57.8357 111.397 57.9314 111.184C58.0328 110.958 58.1759 110.8 58.2706 110.722L61.4368 114.592ZM62.8448 111.456H67.8448C67.8448 109.048 66.949 106.791 65.1259 105.069L61.6928 108.704L58.2597 112.339C58.1681 112.253 58.0388 112.092 57.9446 111.867C57.8526 111.647 57.8448 111.488 57.8448 111.456H62.8448ZM61.6928 108.704L65.2283 105.168C63.9756 103.916 62.4897 102.984 60.889 102.307L58.9408 106.912L56.9926 111.517C57.6106 111.778 57.9593 112.042 58.1573 112.24L61.6928 108.704ZM58.9408 106.912L60.9545 102.335C59.6037 101.741 57.835 101.138 55.7602 100.52L54.3328 105.312L52.9054 110.104C54.8412 110.681 56.1446 111.144 56.9271 111.489L58.9408 106.912ZM54.3328 105.312L55.8082 100.535C53.0469 99.6819 50.9434 98.8737 49.423 98.1312L47.2288 102.624L45.0346 107.117C47.1835 108.166 49.816 109.15 52.8574 110.089L54.3328 105.312ZM47.2288 102.624L49.423 98.1312C48.3457 97.6051 47.366 96.8108 46.4811 95.6405L42.4928 98.656L38.5045 101.672C40.2649 104 42.4425 105.851 45.0346 107.117L47.2288 102.624ZM42.4928 98.656L46.4811 95.6405C45.9807 94.9787 45.5088 93.8468 45.5088 91.808H40.5088H35.5088C35.5088 95.4012 36.3595 98.8347 38.5045 101.672L42.4928 98.656ZM40.5088 91.808H45.5088C45.5088 89.0109 46.4307 87.2733 48.1148 85.9687L45.0528 82.016L41.9908 78.0633C37.6163 81.452 35.5088 86.2424 35.5088 91.808H40.5088ZM45.0528 82.016L48.1492 85.9418C50.0877 84.4129 52.854 83.432 56.8928 83.432V78.432V73.432C51.2036 73.432 46.0765 74.8405 41.9564 78.0902L45.0528 82.016ZM56.8928 78.432V83.432C61.0404 83.432 63.8403 84.4243 65.7644 85.9418L68.8608 82.016L71.9572 78.0902C67.8226 74.829 62.6439 73.432 56.8928 73.432V78.432ZM68.8608 82.016L65.7988 85.9687C67.5474 87.3233 68.5828 89.1864 68.7312 92.1242L73.7248 91.872L78.7184 91.6198C78.4401 86.1096 76.2328 81.402 71.9228 78.0632L68.8608 82.016ZM73.7248 91.872V86.872H61.8848V91.872V96.872H73.7248V91.872ZM61.8848 91.872L66.8762 91.5784C66.722 88.9572 65.6774 86.4494 63.4692 84.6252L60.2848 88.48L57.1004 92.3348C57.0751 92.3139 57.0363 92.277 56.9947 92.2237C56.9529 92.1701 56.9207 92.1159 56.8986 92.0691C56.8524 91.971 56.8823 91.9757 56.8934 92.1656L61.8848 91.872ZM60.2848 88.48L63.5657 84.707C61.5147 82.9235 59.0205 82.2 56.5088 82.2V87.2V92.2C56.8143 92.2 56.9608 92.2422 56.9996 92.2553C57.0197 92.2621 57.0229 92.2651 57.0161 92.2612C57.0134 92.2596 57.0103 92.2577 57.0074 92.2556C57.0045 92.2536 57.0033 92.2525 57.0039 92.253L60.2848 88.48ZM56.5088 87.2V82.2C54.2344 82.2 51.8905 82.8478 49.9748 84.5618L53.3088 88.288L56.6428 92.0142C56.5917 92.0599 56.5334 92.1024 56.4719 92.138C56.4108 92.1734 56.3596 92.1945 56.3263 92.2059C56.2601 92.2284 56.3019 92.2 56.5088 92.2V87.2ZM53.3088 88.288L50.0881 84.4634C47.8769 86.3255 47.0928 88.8961 47.0928 91.296H52.0928H57.0928C57.0928 91.1378 57.1175 91.2152 57.0323 91.4259C56.936 91.6644 56.7609 91.9177 56.5295 92.1126L53.3088 88.288ZM52.0928 91.296H47.0928C47.0928 94.7038 48.8788 97.3786 51.5881 98.9873L54.1408 94.688L56.6935 90.3887C56.5768 90.3194 56.7225 90.3784 56.8851 90.6477C56.9627 90.7762 57.0198 90.9139 57.0546 91.0456C57.0887 91.1745 57.0928 91.2642 57.0928 91.296H52.0928ZM54.1408 94.688L51.5881 98.9873C53.4445 100.09 56.007 101.1 59.0017 102.069L60.5408 97.312L62.0799 92.5548C59.272 91.6463 57.5677 90.9078 56.6935 90.3887L54.1408 94.688ZM60.5408 97.312L58.9388 102.048C61.7236 102.99 63.8348 103.845 65.3447 104.6L67.5808 100.128L69.8169 95.6559C67.7428 94.6188 65.1607 93.5963 62.1428 92.5756L60.5408 97.312ZM67.5808 100.128L65.3866 104.621C66.4942 105.162 67.4832 105.957 68.3647 107.095L72.3168 104.032L76.2689 100.969C74.5051 98.6932 72.3368 96.8863 69.775 95.6352L67.5808 100.128ZM72.3168 104.032L68.3647 107.095C68.8559 107.729 69.3008 108.768 69.3008 110.624H74.3008H79.3008C79.3008 107.104 78.423 103.749 76.2689 100.969L72.3168 104.032ZM74.3008 110.624H69.3008C69.3008 112.272 68.8898 113.665 68.0914 114.927L72.3168 117.6L76.5422 120.273C78.3891 117.354 79.3008 114.096 79.3008 110.624H74.3008ZM72.3168 117.6L68.0525 114.989C67.3219 116.183 66.1971 117.246 64.4487 118.12L66.6848 122.592L68.9209 127.064C72.1219 125.464 74.7517 123.199 76.5811 120.211L72.3168 117.6ZM66.6848 122.592L64.4487 118.12C62.8036 118.942 60.6781 119.448 57.9168 119.448V124.448V129.448C61.8968 129.448 65.6166 128.716 68.9209 127.064L66.6848 122.592ZM91.9798 79.072H96.9798C96.9798 76.3106 94.7412 74.072 91.9798 74.072V79.072ZM91.9798 124V129C94.7412 129 96.9798 126.761 96.9798 124H91.9798ZM81.0358 124H76.0358C76.0358 126.761 78.2744 129 81.0358 129V124ZM81.0358 79.072V74.072C78.2744 74.072 76.0358 76.3106 76.0358 79.072H81.0358ZM91.9798 79.072H86.9798V124H91.9798H96.9798V79.072H91.9798ZM91.9798 124V119H81.0358V124V129H91.9798V124ZM81.0358 124H86.0358V79.072H81.0358H76.0358V124H81.0358ZM81.0358 79.072V84.072H91.9798V79.072V74.072H81.0358V79.072ZM127.431 124L123.268 126.769C124.194 128.163 125.757 129 127.431 129V124ZM118.279 110.24L122.442 107.471C121.487 106.035 119.86 105.193 118.137 105.242C116.413 105.291 114.837 106.224 113.965 107.712L118.279 110.24ZM110.215 124V129C111.99 129 113.631 128.059 114.529 126.528L110.215 124ZM97.7988 124L93.5688 121.334C92.5979 122.875 92.5413 124.821 93.421 126.416C94.3008 128.01 95.9778 129 97.7988 129V124ZM112.199 101.152L116.429 103.818C117.48 102.15 117.453 100.019 116.359 98.3785L112.199 101.152ZM97.4788 79.072V74.072C95.6348 74.072 93.9405 75.0869 93.0704 76.7127C92.2003 78.3385 92.2957 80.3112 93.3185 81.8455L97.4788 79.072ZM110.215 79.072L114.378 76.303C113.451 74.9094 111.888 74.072 110.215 74.072V79.072ZM119.239 92.64L115.076 95.409C116.031 96.8452 117.659 97.6876 119.383 97.6379C121.107 97.5882 122.684 96.6533 123.555 95.1644L119.239 92.64ZM127.175 79.072V74.072C125.399 74.072 123.756 75.0144 122.859 76.5476L127.175 79.072ZM139.591 79.072L143.821 81.737C144.792 80.1964 144.848 78.25 143.968 76.6559C143.088 75.0618 141.412 74.072 139.591 74.072V79.072ZM125.319 101.728L121.088 99.063C120.037 100.731 120.065 102.861 121.159 104.501L125.319 101.728ZM140.167 124V129C142.011 129 143.705 127.985 144.575 126.359C145.445 124.734 145.35 122.761 144.327 121.226L140.167 124ZM127.431 124L131.594 121.231L122.442 107.471L118.279 110.24L114.116 113.009L123.268 126.769L127.431 124ZM118.279 110.24L113.965 107.712L105.901 121.472L110.215 124L114.529 126.528L122.593 112.768L118.279 110.24ZM110.215 124V119H97.7988V124V129H110.215V124ZM97.7988 124L102.029 126.666L116.429 103.818L112.199 101.152L107.969 98.486L93.5688 121.334L97.7988 124ZM112.199 101.152L116.359 98.3785L101.639 76.2985L97.4788 79.072L93.3185 81.8455L108.039 103.925L112.199 101.152ZM97.4788 79.072V84.072H110.215V79.072V74.072H97.4788V79.072ZM110.215 79.072L106.052 81.841L115.076 95.409L119.239 92.64L123.402 89.871L114.378 76.303L110.215 79.072ZM119.239 92.64L123.555 95.1644L131.491 81.5964L127.175 79.072L122.859 76.5476L114.923 90.1156L119.239 92.64ZM127.175 79.072V84.072H139.591V79.072V74.072H127.175V79.072ZM139.591 79.072L135.36 76.407L121.088 99.063L125.319 101.728L129.549 104.393L143.821 81.737L139.591 79.072ZM125.319 101.728L121.159 104.501L136.007 126.774L140.167 124L144.327 121.226L129.479 98.9545L125.319 101.728ZM140.167 124V119H127.431V124V129H140.167V124Z" fill="black" mask="url(#path-3-outside-2_3_128)"/>
<mask id="path-5-outside-3_3_128" maskUnits="userSpaceOnUse" x="35" y="70" width="111" height="57" fill="black">
<rect fill="white" x="35" y="70" width="111" height="57"/>
<path d="M57.9168 121.448C54.6315 121.448 51.6875 120.915 49.0848 119.848C46.4821 118.781 44.3915 117.203 42.8128 115.112C41.2768 113.021 40.4661 110.504 40.3808 107.56H52.0288C52.1995 109.224 52.7755 110.504 53.7568 111.4C54.7381 112.253 56.0181 112.68 57.5968 112.68C59.2181 112.68 60.4981 112.317 61.4368 111.592C62.3755 110.824 62.8448 109.779 62.8448 108.456C62.8448 107.347 62.4608 106.429 61.6928 105.704C60.9675 104.979 60.0501 104.381 58.9408 103.912C57.8741 103.443 56.3381 102.909 54.3328 102.312C51.4315 101.416 49.0635 100.52 47.2288 99.624C45.3941 98.728 43.8155 97.4053 42.4928 95.656C41.1701 93.9067 40.5088 91.624 40.5088 88.808C40.5088 84.6267 42.0235 81.3627 45.0528 79.016C48.0821 76.6267 52.0288 75.432 56.8928 75.432C61.8421 75.432 65.8315 76.6267 68.8608 79.016C71.8901 81.3627 73.5115 84.648 73.7248 88.872H61.8848C61.7995 87.4213 61.2661 86.2907 60.2848 85.48C59.3035 84.6267 58.0448 84.2 56.5088 84.2C55.1861 84.2 54.1195 84.5627 53.3088 85.288C52.4981 85.9707 52.0928 86.9733 52.0928 88.296C52.0928 89.7467 52.7755 90.8773 54.1408 91.688C55.5061 92.4987 57.6395 93.3733 60.5408 94.312C63.4421 95.2933 65.7888 96.232 67.5808 97.128C69.4155 98.024 70.9941 99.3253 72.3168 101.032C73.6395 102.739 74.3008 104.936 74.3008 107.624C74.3008 110.184 73.6395 112.509 72.3168 114.6C71.0368 116.691 69.1595 118.355 66.6848 119.592C64.2101 120.829 61.2875 121.448 57.9168 121.448ZM91.9798 76.072V121H81.0358V76.072H91.9798ZM127.431 121L118.279 107.24L110.215 121H97.7988L112.199 98.152L97.4788 76.072H110.215L119.239 89.64L127.175 76.072H139.591L125.319 98.728L140.167 121H127.431Z"/>
</mask>
<path d="M57.9168 121.448C54.6315 121.448 51.6875 120.915 49.0848 119.848C46.4821 118.781 44.3915 117.203 42.8128 115.112C41.2768 113.021 40.4661 110.504 40.3808 107.56H52.0288C52.1995 109.224 52.7755 110.504 53.7568 111.4C54.7381 112.253 56.0181 112.68 57.5968 112.68C59.2181 112.68 60.4981 112.317 61.4368 111.592C62.3755 110.824 62.8448 109.779 62.8448 108.456C62.8448 107.347 62.4608 106.429 61.6928 105.704C60.9675 104.979 60.0501 104.381 58.9408 103.912C57.8741 103.443 56.3381 102.909 54.3328 102.312C51.4315 101.416 49.0635 100.52 47.2288 99.624C45.3941 98.728 43.8155 97.4053 42.4928 95.656C41.1701 93.9067 40.5088 91.624 40.5088 88.808C40.5088 84.6267 42.0235 81.3627 45.0528 79.016C48.0821 76.6267 52.0288 75.432 56.8928 75.432C61.8421 75.432 65.8315 76.6267 68.8608 79.016C71.8901 81.3627 73.5115 84.648 73.7248 88.872H61.8848C61.7995 87.4213 61.2661 86.2907 60.2848 85.48C59.3035 84.6267 58.0448 84.2 56.5088 84.2C55.1861 84.2 54.1195 84.5627 53.3088 85.288C52.4981 85.9707 52.0928 86.9733 52.0928 88.296C52.0928 89.7467 52.7755 90.8773 54.1408 91.688C55.5061 92.4987 57.6395 93.3733 60.5408 94.312C63.4421 95.2933 65.7888 96.232 67.5808 97.128C69.4155 98.024 70.9941 99.3253 72.3168 101.032C73.6395 102.739 74.3008 104.936 74.3008 107.624C74.3008 110.184 73.6395 112.509 72.3168 114.6C71.0368 116.691 69.1595 118.355 66.6848 119.592C64.2101 120.829 61.2875 121.448 57.9168 121.448ZM91.9798 76.072V121H81.0358V76.072H91.9798ZM127.431 121L118.279 107.24L110.215 121H97.7988L112.199 98.152L97.4788 76.072H110.215L119.239 89.64L127.175 76.072H139.591L125.319 98.728L140.167 121H127.431Z" fill="white"/>
<path d="M49.0848 119.848L47.1887 124.475L47.1887 124.475L49.0848 119.848ZM42.8128 115.112L38.7834 118.072C38.7963 118.09 38.8094 118.108 38.8226 118.125L42.8128 115.112ZM40.3808 107.56V102.56C39.0296 102.56 37.7359 103.107 36.7944 104.076C35.8529 105.045 35.3437 106.354 35.3829 107.705L40.3808 107.56ZM52.0288 107.56L57.0027 107.05C56.7411 104.499 54.5927 102.56 52.0288 102.56V107.56ZM53.7568 111.4L50.3854 115.092C50.4153 115.12 50.4454 115.147 50.4759 115.173L53.7568 111.4ZM61.4368 111.592L64.494 115.548C64.5308 115.52 64.5671 115.491 64.603 115.462L61.4368 111.592ZM61.6928 105.704L58.1573 109.24C58.1909 109.273 58.2251 109.306 58.2597 109.339L61.6928 105.704ZM58.9408 103.912L56.9271 108.489C56.9489 108.498 56.9707 108.508 56.9926 108.517L58.9408 103.912ZM54.3328 102.312L52.8574 107.089C52.8734 107.094 52.8894 107.099 52.9054 107.104L54.3328 102.312ZM47.2288 99.624L45.0346 104.117L47.2288 99.624ZM42.4928 95.656L46.4811 92.6405L46.4811 92.6405L42.4928 95.656ZM45.0528 79.016L48.1148 82.9687C48.1263 82.9598 48.1378 82.9509 48.1492 82.9418L45.0528 79.016ZM68.8608 79.016L65.7644 82.9418C65.7758 82.9509 65.7873 82.9598 65.7988 82.9687L68.8608 79.016ZM73.7248 88.872V93.872C75.0946 93.872 76.4045 93.31 77.3484 92.3172C78.2923 91.3244 78.7875 89.9879 78.7184 88.6198L73.7248 88.872ZM61.8848 88.872L56.8934 89.1656C57.0489 91.8084 59.2374 93.872 61.8848 93.872V88.872ZM60.2848 85.48L57.0039 89.253C57.0357 89.2807 57.0679 89.308 57.1004 89.3348L60.2848 85.48ZM53.3088 85.288L56.5295 89.1126C56.5677 89.0803 56.6055 89.0476 56.6428 89.0142L53.3088 85.288ZM54.1408 91.688L56.6935 87.3887L56.6935 87.3887L54.1408 91.688ZM60.5408 94.312L62.1428 89.5756C62.1219 89.5685 62.1009 89.5616 62.0799 89.5548L60.5408 94.312ZM67.5808 97.128L65.3447 101.6C65.3587 101.607 65.3726 101.614 65.3866 101.621L67.5808 97.128ZM72.3168 101.032L68.3647 104.095L68.3647 104.095L72.3168 101.032ZM72.3168 114.6L68.0914 111.927C68.0783 111.948 68.0653 111.968 68.0525 111.989L72.3168 114.6ZM66.6848 119.592L64.4487 115.12L64.4487 115.12L66.6848 119.592ZM57.9168 121.448V116.448C55.1741 116.448 52.8896 116.004 50.9809 115.221L49.0848 119.848L47.1887 124.475C50.4853 125.826 54.0889 126.448 57.9168 126.448V121.448ZM49.0848 119.848L50.9809 115.221C49.145 114.469 47.8012 113.421 46.803 112.099L42.8128 115.112L38.8226 118.125C40.9817 120.984 43.8193 123.094 47.1887 124.475L49.0848 119.848ZM42.8128 115.112L46.8422 112.152C45.9866 110.987 45.4387 109.486 45.3787 107.415L40.3808 107.56L35.3829 107.705C35.4935 111.522 36.567 115.056 38.7834 118.072L42.8128 115.112ZM40.3808 107.56V112.56H52.0288V107.56V102.56H40.3808V107.56ZM52.0288 107.56L47.0549 108.07C47.3173 110.628 48.2805 113.17 50.3854 115.092L53.7568 111.4L57.1281 107.708C57.1694 107.745 57.1724 107.77 57.1484 107.716C57.1177 107.648 57.0436 107.448 57.0027 107.05L52.0288 107.56ZM53.7568 111.4L50.4759 115.173C52.5517 116.978 55.0818 117.68 57.5968 117.68V112.68V107.68C57.2556 107.68 57.0858 107.634 57.0339 107.617C56.995 107.604 57.0126 107.605 57.0377 107.627L53.7568 111.4ZM57.5968 112.68V117.68C59.9237 117.68 62.4082 117.16 64.494 115.548L61.4368 111.592L58.3796 107.636C58.5881 107.474 58.5126 107.68 57.5968 107.68V112.68ZM61.4368 111.592L64.603 115.462C66.817 113.65 67.8448 111.124 67.8448 108.456H62.8448H57.8448C57.8448 108.52 57.8357 108.397 57.9314 108.184C58.0328 107.958 58.1759 107.8 58.2706 107.722L61.4368 111.592ZM62.8448 108.456H67.8448C67.8448 106.048 66.949 103.791 65.1259 102.069L61.6928 105.704L58.2597 109.339C58.1681 109.253 58.0388 109.092 57.9446 108.867C57.8526 108.647 57.8448 108.488 57.8448 108.456H62.8448ZM61.6928 105.704L65.2283 102.168C63.9756 100.916 62.4897 99.9844 60.889 99.3072L58.9408 103.912L56.9926 108.517C57.6106 108.778 57.9593 109.042 58.1573 109.24L61.6928 105.704ZM58.9408 103.912L60.9545 99.3354C59.6037 98.7411 57.835 98.1381 55.7602 97.5201L54.3328 102.312L52.9054 107.104C54.8412 107.681 56.1446 108.144 56.9271 108.489L58.9408 103.912ZM54.3328 102.312L55.8082 97.5346C53.0469 96.6819 50.9434 95.8737 49.423 95.1312L47.2288 99.624L45.0346 104.117C47.1835 105.166 49.816 106.15 52.8574 107.089L54.3328 102.312ZM47.2288 99.624L49.423 95.1312C48.3457 94.6051 47.366 93.8108 46.4811 92.6405L42.4928 95.656L38.5045 98.6715C40.2649 101 42.4425 102.851 45.0346 104.117L47.2288 99.624ZM42.4928 95.656L46.4811 92.6405C45.9807 91.9787 45.5088 90.8468 45.5088 88.808H40.5088H35.5088C35.5088 92.4012 36.3595 95.8347 38.5045 98.6715L42.4928 95.656ZM40.5088 88.808H45.5088C45.5088 86.0109 46.4307 84.2733 48.1148 82.9687L45.0528 79.016L41.9908 75.0633C37.6163 78.452 35.5088 83.2424 35.5088 88.808H40.5088ZM45.0528 79.016L48.1492 82.9418C50.0877 81.4129 52.854 80.432 56.8928 80.432V75.432V70.432C51.2036 70.432 46.0765 71.8405 41.9564 75.0902L45.0528 79.016ZM56.8928 75.432V80.432C61.0404 80.432 63.8403 81.4243 65.7644 82.9418L68.8608 79.016L71.9572 75.0902C67.8226 71.829 62.6439 70.432 56.8928 70.432V75.432ZM68.8608 79.016L65.7988 82.9687C67.5474 84.3233 68.5828 86.1864 68.7312 89.1242L73.7248 88.872L78.7184 88.6198C78.4401 83.1096 76.2328 78.402 71.9228 75.0632L68.8608 79.016ZM73.7248 88.872V83.872H61.8848V88.872V93.872H73.7248V88.872ZM61.8848 88.872L66.8762 88.5784C66.722 85.9572 65.6774 83.4494 63.4692 81.6252L60.2848 85.48L57.1004 89.3348C57.0751 89.3139 57.0363 89.277 56.9947 89.2237C56.9529 89.1701 56.9207 89.1159 56.8986 89.0691C56.8524 88.971 56.8823 88.9757 56.8934 89.1656L61.8848 88.872ZM60.2848 85.48L63.5657 81.707C61.5147 79.9235 59.0205 79.2 56.5088 79.2V84.2V89.2C56.8143 89.2 56.9608 89.2422 56.9996 89.2553C57.0197 89.2621 57.0229 89.2651 57.0161 89.2612C57.0134 89.2596 57.0103 89.2577 57.0074 89.2556C57.0045 89.2536 57.0033 89.2525 57.0039 89.253L60.2848 85.48ZM56.5088 84.2V79.2C54.2344 79.2 51.8905 79.8478 49.9748 81.5618L53.3088 85.288L56.6428 89.0142C56.5917 89.0599 56.5334 89.1024 56.4719 89.138C56.4108 89.1734 56.3596 89.1945 56.3263 89.2059C56.2601 89.2284 56.3019 89.2 56.5088 89.2V84.2ZM53.3088 85.288L50.0881 81.4634C47.8769 83.3255 47.0928 85.8961 47.0928 88.296H52.0928H57.0928C57.0928 88.1378 57.1175 88.2152 57.0323 88.4259C56.936 88.6644 56.7609 88.9177 56.5295 89.1126L53.3088 85.288ZM52.0928 88.296H47.0928C47.0928 91.7038 48.8788 94.3786 51.5881 95.9873L54.1408 91.688L56.6935 87.3887C56.5768 87.3194 56.7225 87.3784 56.8851 87.6477C56.9627 87.7762 57.0198 87.9139 57.0546 88.0456C57.0887 88.1745 57.0928 88.2642 57.0928 88.296H52.0928ZM54.1408 91.688L51.5881 95.9873C53.4445 97.0895 56.007 98.1003 59.0017 99.0692L60.5408 94.312L62.0799 89.5548C59.272 88.6463 57.5677 87.9078 56.6935 87.3887L54.1408 91.688ZM60.5408 94.312L58.9388 99.0484C61.7236 99.9903 63.8348 100.845 65.3447 101.6L67.5808 97.128L69.8169 92.6559C67.7428 91.6188 65.1607 90.5963 62.1428 89.5756L60.5408 94.312ZM67.5808 97.128L65.3866 101.621C66.4942 102.162 67.4832 102.957 68.3647 104.095L72.3168 101.032L76.2689 97.9691C74.5051 95.6932 72.3368 93.8863 69.775 92.6352L67.5808 97.128ZM72.3168 101.032L68.3647 104.095C68.8559 104.729 69.3008 105.768 69.3008 107.624H74.3008H79.3008C79.3008 104.104 78.423 100.749 76.2689 97.9691L72.3168 101.032ZM74.3008 107.624H69.3008C69.3008 109.272 68.8898 110.665 68.0914 111.927L72.3168 114.6L76.5422 117.273C78.3891 114.354 79.3008 111.096 79.3008 107.624H74.3008ZM72.3168 114.6L68.0525 111.989C67.3219 113.183 66.1971 114.246 64.4487 115.12L66.6848 119.592L68.9209 124.064C72.1219 122.464 74.7517 120.199 76.5811 117.211L72.3168 114.6ZM66.6848 119.592L64.4487 115.12C62.8036 115.942 60.6781 116.448 57.9168 116.448V121.448V126.448C61.8968 126.448 65.6166 125.716 68.9209 124.064L66.6848 119.592ZM91.9798 76.072H96.9798C96.9798 73.3106 94.7412 71.072 91.9798 71.072V76.072ZM91.9798 121V126C94.7412 126 96.9798 123.761 96.9798 121H91.9798ZM81.0358 121H76.0358C76.0358 123.761 78.2744 126 81.0358 126V121ZM81.0358 76.072V71.072C78.2744 71.072 76.0358 73.3106 76.0358 76.072H81.0358ZM91.9798 76.072H86.9798V121H91.9798H96.9798V76.072H91.9798ZM91.9798 121V116H81.0358V121V126H91.9798V121ZM81.0358 121H86.0358V76.072H81.0358H76.0358V121H81.0358ZM81.0358 76.072V81.072H91.9798V76.072V71.072H81.0358V76.072ZM127.431 121L123.268 123.769C124.194 125.163 125.757 126 127.431 126V121ZM118.279 107.24L122.442 104.471C121.487 103.035 119.86 102.193 118.137 102.242C116.413 102.291 114.837 103.224 113.965 104.712L118.279 107.24ZM110.215 121V126C111.99 126 113.631 125.059 114.529 123.528L110.215 121ZM97.7988 121L93.5688 118.334C92.5979 119.875 92.5413 121.821 93.421 123.416C94.3008 125.01 95.9778 126 97.7988 126V121ZM112.199 98.152L116.429 100.818C117.48 99.1497 117.453 97.0193 116.359 95.3785L112.199 98.152ZM97.4788 76.072V71.072C95.6348 71.072 93.9405 72.0869 93.0704 73.7127C92.2003 75.3385 92.2957 77.3112 93.3185 78.8455L97.4788 76.072ZM110.215 76.072L114.378 73.303C113.451 71.9094 111.888 71.072 110.215 71.072V76.072ZM119.239 89.64L115.076 92.409C116.031 93.8452 117.659 94.6876 119.383 94.6379C121.107 94.5882 122.684 93.6533 123.555 92.1644L119.239 89.64ZM127.175 76.072V71.072C125.399 71.072 123.756 72.0144 122.859 73.5476L127.175 76.072ZM139.591 76.072L143.821 78.737C144.792 77.1964 144.848 75.25 143.968 73.6559C143.088 72.0618 141.412 71.072 139.591 71.072V76.072ZM125.319 98.728L121.088 96.063C120.037 97.7311 120.065 99.8611 121.159 101.501L125.319 98.728ZM140.167 121V126C142.011 126 143.705 124.985 144.575 123.359C145.445 121.734 145.35 119.761 144.327 118.226L140.167 121ZM127.431 121L131.594 118.231L122.442 104.471L118.279 107.24L114.116 110.009L123.268 123.769L127.431 121ZM118.279 107.24L113.965 104.712L105.901 118.472L110.215 121L114.529 123.528L122.593 109.768L118.279 107.24ZM110.215 121V116H97.7988V121V126H110.215V121ZM97.7988 121L102.029 123.666L116.429 100.818L112.199 98.152L107.969 95.486L93.5688 118.334L97.7988 121ZM112.199 98.152L116.359 95.3785L101.639 73.2985L97.4788 76.072L93.3185 78.8455L108.039 100.925L112.199 98.152ZM97.4788 76.072V81.072H110.215V76.072V71.072H97.4788V76.072ZM110.215 76.072L106.052 78.841L115.076 92.409L119.239 89.64L123.402 86.871L114.378 73.303L110.215 76.072ZM119.239 89.64L123.555 92.1644L131.491 78.5964L127.175 76.072L122.859 73.5476L114.923 87.1156L119.239 89.64ZM127.175 76.072V81.072H139.591V76.072V71.072H127.175V76.072ZM139.591 76.072L135.36 73.407L121.088 96.063L125.319 98.728L129.549 101.393L143.821 78.737L139.591 76.072ZM125.319 98.728L121.159 101.501L136.007 123.774L140.167 121L144.327 118.226L129.479 95.9545L125.319 98.728ZM140.167 121V116H127.431V121V126H140.167V121Z" fill="black" mask="url(#path-5-outside-3_3_128)"/>
<mask id="path-7-outside-4_3_128" maskUnits="userSpaceOnUse" x="3" y="20" width="238" height="55" fill="black">
<rect fill="white" x="3" y="20" width="238" height="55"/>
<path d="M47.5988 25.072V70H36.6548V51.504H19.6308V70H8.68675V25.072H19.6308V42.672H36.6548V25.072H47.5988ZM83.4673 62.064H66.6993L64.0113 70H52.5553L68.8113 25.072H81.4833L97.7393 70H86.1553L83.4673 62.064ZM80.6513 53.616L75.0833 37.168L69.5793 53.616H80.6513ZM142.879 70H131.935L113.631 42.288V70H102.687V25.072H113.631L131.935 52.912V25.072H142.879V70ZM167.644 25.072C172.38 25.072 176.518 26.0107 180.06 27.888C183.601 29.7653 186.332 32.4107 188.252 35.824C190.214 39.1947 191.196 43.0987 191.196 47.536C191.196 51.9307 190.214 55.8347 188.252 59.248C186.332 62.6613 183.58 65.3067 179.996 67.184C176.454 69.0613 172.337 70 167.644 70H150.812V25.072H167.644ZM166.94 60.528C171.078 60.528 174.3 59.3973 176.604 57.136C178.908 54.8747 180.06 51.6747 180.06 47.536C180.06 43.3973 178.908 40.176 176.604 37.872C174.3 35.568 171.078 34.416 166.94 34.416H161.756V60.528H166.94ZM235.84 25.072L220.288 55.152V70H209.344V55.152L193.792 25.072H206.208L214.912 43.888L223.552 25.072H235.84Z"/>
</mask>
<path d="M47.5988 25.072V70H36.6548V51.504H19.6308V70H8.68675V25.072H19.6308V42.672H36.6548V25.072H47.5988ZM83.4673 62.064H66.6993L64.0113 70H52.5553L68.8113 25.072H81.4833L97.7393 70H86.1553L83.4673 62.064ZM80.6513 53.616L75.0833 37.168L69.5793 53.616H80.6513ZM142.879 70H131.935L113.631 42.288V70H102.687V25.072H113.631L131.935 52.912V25.072H142.879V70ZM167.644 25.072C172.38 25.072 176.518 26.0107 180.06 27.888C183.601 29.7653 186.332 32.4107 188.252 35.824C190.214 39.1947 191.196 43.0987 191.196 47.536C191.196 51.9307 190.214 55.8347 188.252 59.248C186.332 62.6613 183.58 65.3067 179.996 67.184C176.454 69.0613 172.337 70 167.644 70H150.812V25.072H167.644ZM166.94 60.528C171.078 60.528 174.3 59.3973 176.604 57.136C178.908 54.8747 180.06 51.6747 180.06 47.536C180.06 43.3973 178.908 40.176 176.604 37.872C174.3 35.568 171.078 34.416 166.94 34.416H161.756V60.528H166.94ZM235.84 25.072L220.288 55.152V70H209.344V55.152L193.792 25.072H206.208L214.912 43.888L223.552 25.072H235.84Z" fill="white"/>
<path d="M47.5988 25.072H52.5988C52.5988 22.3106 50.3602 20.072 47.5988 20.072V25.072ZM47.5988 70V75C50.3602 75 52.5988 72.7614 52.5988 70H47.5988ZM36.6548 70H31.6548C31.6548 72.7614 33.8933 75 36.6548 75V70ZM36.6548 51.504H41.6548C41.6548 48.7426 39.4162 46.504 36.6548 46.504V51.504ZM19.6308 51.504V46.504C16.8693 46.504 14.6308 48.7426 14.6308 51.504H19.6308ZM19.6308 70V75C22.3922 75 24.6308 72.7614 24.6308 70H19.6308ZM8.68675 70H3.68675C3.68675 72.7614 5.92533 75 8.68675 75V70ZM8.68675 25.072V20.072C5.92533 20.072 3.68675 22.3106 3.68675 25.072H8.68675ZM19.6308 25.072H24.6308C24.6308 22.3106 22.3922 20.072 19.6308 20.072V25.072ZM19.6308 42.672H14.6308C14.6308 45.4334 16.8693 47.672 19.6308 47.672V42.672ZM36.6548 42.672V47.672C39.4162 47.672 41.6548 45.4334 41.6548 42.672H36.6548ZM36.6548 25.072V20.072C33.8933 20.072 31.6548 22.3106 31.6548 25.072H36.6548ZM47.5988 25.072H42.5988V70H47.5988H52.5988V25.072H47.5988ZM47.5988 70V65H36.6548V70V75H47.5988V70ZM36.6548 70H41.6548V51.504H36.6548H31.6548V70H36.6548ZM36.6548 51.504V46.504H19.6308V51.504V56.504H36.6548V51.504ZM19.6308 51.504H14.6308V70H19.6308H24.6308V51.504H19.6308ZM19.6308 70V65H8.68675V70V75H19.6308V70ZM8.68675 70H13.6868V25.072H8.68675H3.68675V70H8.68675ZM8.68675 25.072V30.072H19.6308V25.072V20.072H8.68675V25.072ZM19.6308 25.072H14.6308V42.672H19.6308H24.6308V25.072H19.6308ZM19.6308 42.672V47.672H36.6548V42.672V37.672H19.6308V42.672ZM36.6548 42.672H41.6548V25.072H36.6548H31.6548V42.672H36.6548ZM36.6548 25.072V30.072H47.5988V25.072V20.072H36.6548V25.072ZM83.4673 62.064L88.203 60.46C87.5154 58.43 85.6105 57.064 83.4673 57.064V62.064ZM66.6993 62.064V57.064C64.556 57.064 62.6511 58.43 61.9635 60.46L66.6993 62.064ZM64.0113 70V75C66.1545 75 68.0594 73.634 68.747 71.604L64.0113 70ZM52.5553 70L47.8536 68.2988C47.2991 69.8312 47.5262 71.5377 48.4622 72.8718C49.3982 74.2058 50.9256 75 52.5553 75V70ZM68.8113 25.072V20.072C66.7058 20.072 64.8259 21.391 64.1096 23.3708L68.8113 25.072ZM81.4833 25.072L86.185 23.3708C85.4686 21.391 83.5887 20.072 81.4833 20.072V25.072ZM97.7393 70V75C99.3689 75 100.896 74.2058 101.832 72.8718C102.768 71.5377 102.995 69.8312 102.441 68.2988L97.7393 70ZM86.1553 70L81.4195 71.604C82.1071 73.634 84.012 75 86.1553 75V70ZM80.6513 53.616V58.616C82.2626 58.616 83.7752 57.8395 84.7143 56.5301C85.6534 55.2207 85.9039 53.539 85.3872 52.0128L80.6513 53.616ZM75.0833 37.168L79.8192 35.5648C79.1309 33.5313 77.2213 32.1643 75.0745 32.168C72.9277 32.1718 71.0229 33.5455 70.3417 35.5813L75.0833 37.168ZM69.5793 53.616L64.8377 52.0293C64.3273 53.5544 64.5817 55.232 65.5213 56.5372C66.4609 57.8424 67.971 58.616 69.5793 58.616V53.616ZM83.4673 62.064V57.064H66.6993V62.064V67.064H83.4673V62.064ZM66.6993 62.064L61.9635 60.46L59.2755 68.396L64.0113 70L68.747 71.604L71.435 63.668L66.6993 62.064ZM64.0113 70V65H52.5553V70V75H64.0113V70ZM52.5553 70L57.2569 71.7012L73.5129 26.7732L68.8113 25.072L64.1096 23.3708L47.8536 68.2988L52.5553 70ZM68.8113 25.072V30.072H81.4833V25.072V20.072H68.8113V25.072ZM81.4833 25.072L76.7816 26.7732L93.0376 71.7012L97.7393 70L102.441 68.2988L86.185 23.3708L81.4833 25.072ZM97.7393 70V65H86.1553V70V75H97.7393V70ZM86.1553 70L90.891 68.396L88.203 60.46L83.4673 62.064L78.7315 63.668L81.4195 71.604L86.1553 70ZM80.6513 53.616L85.3872 52.0128L79.8192 35.5648L75.0833 37.168L70.3473 38.7712L75.9153 55.2192L80.6513 53.616ZM75.0833 37.168L70.3417 35.5813L64.8377 52.0293L69.5793 53.616L74.3208 55.2027L79.8248 38.7547L75.0833 37.168ZM69.5793 53.616V58.616H80.6513V53.616V48.616H69.5793V53.616ZM142.879 70V75C145.64 75 147.879 72.7614 147.879 70H142.879ZM131.935 70L127.763 72.7557C128.688 74.157 130.255 75 131.935 75V70ZM113.631 42.288L117.803 39.5323C116.586 37.6905 114.306 36.8643 112.192 37.4995C110.078 38.1346 108.631 40.0807 108.631 42.288H113.631ZM113.631 70V75C116.392 75 118.631 72.7614 118.631 70H113.631ZM102.687 70H97.6868C97.6868 72.7614 99.9253 75 102.687 75V70ZM102.687 25.072V20.072C99.9253 20.072 97.6868 22.3106 97.6868 25.072H102.687ZM113.631 25.072L117.809 22.3252C116.884 20.9188 115.314 20.072 113.631 20.072V25.072ZM131.935 52.912L127.757 55.6588C128.971 57.5048 131.252 58.3355 133.368 57.7021C135.485 57.0686 136.935 55.1212 136.935 52.912H131.935ZM131.935 25.072V20.072C129.173 20.072 126.935 22.3106 126.935 25.072H131.935ZM142.879 25.072H147.879C147.879 22.3106 145.64 20.072 142.879 20.072V25.072ZM142.879 70V65H131.935V70V75H142.879V70ZM131.935 70L136.107 67.2443L117.803 39.5323L113.631 42.288L109.459 45.0437L127.763 72.7557L131.935 70ZM113.631 42.288H108.631V70H113.631H118.631V42.288H113.631ZM113.631 70V65H102.687V70V75H113.631V70ZM102.687 70H107.687V25.072H102.687H97.6868V70H102.687ZM102.687 25.072V30.072H113.631V25.072V20.072H102.687V25.072ZM113.631 25.072L109.453 27.8188L127.757 55.6588L131.935 52.912L136.113 50.1652L117.809 22.3252L113.631 25.072ZM131.935 52.912H136.935V25.072H131.935H126.935V52.912H131.935ZM131.935 25.072V30.072H142.879V25.072V20.072H131.935V25.072ZM142.879 25.072H137.879V70H142.879H147.879V25.072H142.879ZM180.06 27.888L182.402 23.4704L182.402 23.4704L180.06 27.888ZM188.252 35.824L183.894 38.2753C183.906 38.2969 183.918 38.3185 183.931 38.34L188.252 35.824ZM188.252 59.248L183.917 56.7556C183.909 56.7693 183.902 56.783 183.894 56.7967L188.252 59.248ZM179.996 67.184L177.676 62.7548C177.668 62.7587 177.661 62.7625 177.654 62.7664L179.996 67.184ZM150.812 70H145.812C145.812 72.7614 148.05 75 150.812 75V70ZM150.812 25.072V20.072C148.05 20.072 145.812 22.3106 145.812 25.072H150.812ZM161.756 34.416V29.416C158.994 29.416 156.756 31.6546 156.756 34.416H161.756ZM161.756 60.528H156.756C156.756 63.2894 158.994 65.528 161.756 65.528V60.528ZM167.644 25.072V30.072C171.711 30.072 175.018 30.8745 177.718 32.3056L180.06 27.888L182.402 23.4704C178.019 21.1468 173.048 20.072 167.644 20.072V25.072ZM180.06 27.888L177.718 32.3056C180.434 33.7454 182.455 35.7175 183.894 38.2753L188.252 35.824L192.61 33.3727C190.208 29.1038 186.768 25.7853 182.402 23.4704L180.06 27.888ZM188.252 35.824L183.931 38.34C185.39 40.8464 186.196 43.8587 186.196 47.536H191.196H196.196C196.196 42.3386 195.039 37.543 192.573 33.308L188.252 35.824ZM191.196 47.536H186.196C186.196 51.1599 185.395 54.1858 183.917 56.7556L188.252 59.248L192.586 61.7404C195.034 57.4835 196.196 52.7015 196.196 47.536H191.196ZM188.252 59.248L183.894 56.7967C182.464 59.3387 180.433 61.3103 177.676 62.7548L179.996 67.184L182.316 71.6132C186.726 69.303 190.199 65.984 192.61 61.6993L188.252 59.248ZM179.996 67.184L177.654 62.7664C174.948 64.2008 171.66 65 167.644 65V70V75C173.014 75 177.961 73.9219 182.338 71.6016L179.996 67.184ZM167.644 70V65H150.812V70V75H167.644V70ZM150.812 70H155.812V25.072H150.812H145.812V70H150.812ZM150.812 25.072V30.072H167.644V25.072V20.072H150.812V25.072ZM166.94 60.528V65.528C172.003 65.528 176.624 64.1221 180.106 60.7044L176.604 57.136L173.101 53.5676C171.976 54.6726 170.154 55.528 166.94 55.528V60.528ZM176.604 57.136L180.106 60.7044C183.619 57.2568 185.06 52.6194 185.06 47.536H180.06H175.06C175.06 50.73 174.197 52.4926 173.101 53.5676L176.604 57.136ZM180.06 47.536H185.06C185.06 42.4477 183.617 37.8144 180.139 34.3365L176.604 37.872L173.068 41.4075C174.198 42.5376 175.06 44.347 175.06 47.536H180.06ZM176.604 37.872L180.139 34.3365C176.661 30.8585 172.028 29.416 166.94 29.416V34.416V39.416C170.129 39.416 171.938 40.2775 173.068 41.4075L176.604 37.872ZM166.94 34.416V29.416H161.756V34.416V39.416H166.94V34.416ZM161.756 34.416H156.756V60.528H161.756H166.756V34.416H161.756ZM161.756 60.528V65.528H166.94V60.528V55.528H161.756V60.528ZM235.84 25.072L240.281 27.3683C241.083 25.8183 241.018 23.9627 240.111 22.4722C239.203 20.9817 237.585 20.072 235.84 20.072V25.072ZM220.288 55.152L215.846 52.8557C215.479 53.5655 215.288 54.3529 215.288 55.152H220.288ZM220.288 70V75C223.049 75 225.288 72.7614 225.288 70H220.288ZM209.344 70H204.344C204.344 72.7614 206.582 75 209.344 75V70ZM209.344 55.152H214.344C214.344 54.3529 214.152 53.5655 213.785 52.8557L209.344 55.152ZM193.792 25.072V20.072C192.047 20.072 190.428 20.9817 189.521 22.4722C188.614 23.9627 188.549 25.8183 189.35 27.3683L193.792 25.072ZM206.208 25.072L210.746 22.9728C209.928 21.2042 208.156 20.072 206.208 20.072V25.072ZM214.912 43.888L210.374 45.9872C211.193 47.7581 212.968 48.8907 214.919 48.888C216.87 48.8853 218.641 47.7477 219.456 45.9745L214.912 43.888ZM223.552 25.072V20.072C221.598 20.072 219.823 21.21 219.008 22.9855L223.552 25.072ZM235.84 25.072L231.398 22.7757L215.846 52.8557L220.288 55.152L224.729 57.4483L240.281 27.3683L235.84 25.072ZM220.288 55.152H215.288V70H220.288H225.288V55.152H220.288ZM220.288 70V65H209.344V70V75H220.288V70ZM209.344 70H214.344V55.152H209.344H204.344V70H209.344ZM209.344 55.152L213.785 52.8557L198.233 22.7757L193.792 25.072L189.35 27.3683L204.902 57.4483L209.344 55.152ZM193.792 25.072V30.072H206.208V25.072V20.072H193.792V25.072ZM206.208 25.072L201.67 27.1712L210.374 45.9872L214.912 43.888L219.45 41.7888L210.746 22.9728L206.208 25.072ZM214.912 43.888L219.456 45.9745L228.096 27.1585L223.552 25.072L219.008 22.9855L210.368 41.8015L214.912 43.888ZM223.552 25.072V30.072H235.84V25.072V20.072H223.552V25.072Z" fill="black" mask="url(#path-7-outside-4_3_128)"/>
<mask id="path-9-outside-5_3_128" maskUnits="userSpaceOnUse" x="0" y="20" width="238" height="55" fill="black">
<rect fill="white" y="20" width="238" height="55"/>
<path d="M44.5988 25.072V70H33.6548V51.504H16.6308V70H5.68675V25.072H16.6308V42.672H33.6548V25.072H44.5988ZM80.4673 62.064H63.6993L61.0113 70H49.5553L65.8113 25.072H78.4833L94.7393 70H83.1553L80.4673 62.064ZM77.6513 53.616L72.0833 37.168L66.5793 53.616H77.6513ZM139.879 70H128.935L110.631 42.288V70H99.6868V25.072H110.631L128.935 52.912V25.072H139.879V70ZM164.644 25.072C169.38 25.072 173.518 26.0107 177.06 27.888C180.601 29.7653 183.332 32.4107 185.252 35.824C187.214 39.1947 188.196 43.0987 188.196 47.536C188.196 51.9307 187.214 55.8347 185.252 59.248C183.332 62.6613 180.58 65.3067 176.996 67.184C173.454 69.0613 169.337 70 164.644 70H147.812V25.072H164.644ZM163.94 60.528C168.078 60.528 171.3 59.3973 173.604 57.136C175.908 54.8747 177.06 51.6747 177.06 47.536C177.06 43.3973 175.908 40.176 173.604 37.872C171.3 35.568 168.078 34.416 163.94 34.416H158.756V60.528H163.94ZM232.84 25.072L217.288 55.152V70H206.344V55.152L190.792 25.072H203.208L211.912 43.888L220.552 25.072H232.84Z"/>
</mask>
<path d="M44.5988 25.072V70H33.6548V51.504H16.6308V70H5.68675V25.072H16.6308V42.672H33.6548V25.072H44.5988ZM80.4673 62.064H63.6993L61.0113 70H49.5553L65.8113 25.072H78.4833L94.7393 70H83.1553L80.4673 62.064ZM77.6513 53.616L72.0833 37.168L66.5793 53.616H77.6513ZM139.879 70H128.935L110.631 42.288V70H99.6868V25.072H110.631L128.935 52.912V25.072H139.879V70ZM164.644 25.072C169.38 25.072 173.518 26.0107 177.06 27.888C180.601 29.7653 183.332 32.4107 185.252 35.824C187.214 39.1947 188.196 43.0987 188.196 47.536C188.196 51.9307 187.214 55.8347 185.252 59.248C183.332 62.6613 180.58 65.3067 176.996 67.184C173.454 69.0613 169.337 70 164.644 70H147.812V25.072H164.644ZM163.94 60.528C168.078 60.528 171.3 59.3973 173.604 57.136C175.908 54.8747 177.06 51.6747 177.06 47.536C177.06 43.3973 175.908 40.176 173.604 37.872C171.3 35.568 168.078 34.416 163.94 34.416H158.756V60.528H163.94ZM232.84 25.072L217.288 55.152V70H206.344V55.152L190.792 25.072H203.208L211.912 43.888L220.552 25.072H232.84Z" fill="white"/>
<path d="M44.5988 25.072H49.5988C49.5988 22.3106 47.3602 20.072 44.5988 20.072V25.072ZM44.5988 70V75C47.3602 75 49.5988 72.7614 49.5988 70H44.5988ZM33.6548 70H28.6548C28.6548 72.7614 30.8933 75 33.6548 75V70ZM33.6548 51.504H38.6548C38.6548 48.7426 36.4162 46.504 33.6548 46.504V51.504ZM16.6308 51.504V46.504C13.8693 46.504 11.6308 48.7426 11.6308 51.504H16.6308ZM16.6308 70V75C19.3922 75 21.6308 72.7614 21.6308 70H16.6308ZM5.68675 70H0.68675C0.68675 72.7614 2.92533 75 5.68675 75L5.68675 70ZM5.68675 25.072V20.072C2.92533 20.072 0.68675 22.3106 0.68675 25.072H5.68675ZM16.6308 25.072H21.6308C21.6308 22.3106 19.3922 20.072 16.6308 20.072V25.072ZM16.6308 42.672H11.6308C11.6308 45.4334 13.8693 47.672 16.6308 47.672V42.672ZM33.6548 42.672V47.672C36.4162 47.672 38.6548 45.4334 38.6548 42.672H33.6548ZM33.6548 25.072V20.072C30.8933 20.072 28.6548 22.3106 28.6548 25.072H33.6548ZM44.5988 25.072H39.5988V70H44.5988H49.5988V25.072H44.5988ZM44.5988 70V65H33.6548V70V75H44.5988V70ZM33.6548 70H38.6548V51.504H33.6548H28.6548V70H33.6548ZM33.6548 51.504V46.504H16.6308V51.504V56.504H33.6548V51.504ZM16.6308 51.504H11.6308V70H16.6308H21.6308V51.504H16.6308ZM16.6308 70V65H5.68675V70V75H16.6308V70ZM5.68675 70H10.6868V25.072H5.68675H0.68675V70H5.68675ZM5.68675 25.072V30.072H16.6308V25.072V20.072H5.68675V25.072ZM16.6308 25.072H11.6308V42.672H16.6308H21.6308V25.072H16.6308ZM16.6308 42.672V47.672H33.6548V42.672V37.672H16.6308V42.672ZM33.6548 42.672H38.6548V25.072H33.6548H28.6548V42.672H33.6548ZM33.6548 25.072V30.072H44.5988V25.072V20.072H33.6548V25.072ZM80.4673 62.064L85.203 60.46C84.5154 58.43 82.6105 57.064 80.4673 57.064V62.064ZM63.6993 62.064V57.064C61.556 57.064 59.6511 58.43 58.9635 60.46L63.6993 62.064ZM61.0113 70V75C63.1545 75 65.0594 73.634 65.747 71.604L61.0113 70ZM49.5553 70L44.8536 68.2988C44.2991 69.8312 44.5262 71.5377 45.4622 72.8718C46.3982 74.2058 47.9256 75 49.5553 75V70ZM65.8113 25.072V20.072C63.7058 20.072 61.8259 21.391 61.1096 23.3708L65.8113 25.072ZM78.4833 25.072L83.185 23.3708C82.4686 21.391 80.5887 20.072 78.4833 20.072V25.072ZM94.7393 70V75C96.3689 75 97.8963 74.2058 98.8323 72.8718C99.7683 71.5377 99.9954 69.8312 99.441 68.2988L94.7393 70ZM83.1553 70L78.4195 71.604C79.1071 73.634 81.012 75 83.1553 75V70ZM77.6513 53.616V58.616C79.2626 58.616 80.7752 57.8395 81.7143 56.5301C82.6534 55.2207 82.9039 53.539 82.3872 52.0128L77.6513 53.616ZM72.0833 37.168L76.8192 35.5648C76.1309 33.5313 74.2213 32.1643 72.0745 32.168C69.9277 32.1718 68.0229 33.5455 67.3417 35.5813L72.0833 37.168ZM66.5793 53.616L61.8377 52.0293C61.3273 53.5544 61.5817 55.232 62.5213 56.5372C63.4609 57.8424 64.971 58.616 66.5793 58.616V53.616ZM80.4673 62.064V57.064H63.6993V62.064V67.064H80.4673V62.064ZM63.6993 62.064L58.9635 60.46L56.2755 68.396L61.0113 70L65.747 71.604L68.435 63.668L63.6993 62.064ZM61.0113 70V65H49.5553V70V75H61.0113V70ZM49.5553 70L54.2569 71.7012L70.5129 26.7732L65.8113 25.072L61.1096 23.3708L44.8536 68.2988L49.5553 70ZM65.8113 25.072V30.072H78.4833V25.072V20.072H65.8113V25.072ZM78.4833 25.072L73.7816 26.7732L90.0376 71.7012L94.7393 70L99.441 68.2988L83.185 23.3708L78.4833 25.072ZM94.7393 70V65H83.1553V70V75H94.7393V70ZM83.1553 70L87.891 68.396L85.203 60.46L80.4673 62.064L75.7315 63.668L78.4195 71.604L83.1553 70ZM77.6513 53.616L82.3872 52.0128L76.8192 35.5648L72.0833 37.168L67.3473 38.7712L72.9153 55.2192L77.6513 53.616ZM72.0833 37.168L67.3417 35.5813L61.8377 52.0293L66.5793 53.616L71.3208 55.2027L76.8248 38.7547L72.0833 37.168ZM66.5793 53.616V58.616H77.6513V53.616V48.616H66.5793V53.616ZM139.879 70V75C142.64 75 144.879 72.7614 144.879 70H139.879ZM128.935 70L124.763 72.7557C125.688 74.157 127.255 75 128.935 75V70ZM110.631 42.288L114.803 39.5323C113.586 37.6905 111.306 36.8643 109.192 37.4995C107.078 38.1346 105.631 40.0807 105.631 42.288H110.631ZM110.631 70V75C113.392 75 115.631 72.7614 115.631 70H110.631ZM99.6868 70H94.6868C94.6868 72.7614 96.9253 75 99.6868 75V70ZM99.6868 25.072V20.072C96.9253 20.072 94.6868 22.3106 94.6868 25.072H99.6868ZM110.631 25.072L114.809 22.3252C113.884 20.9188 112.314 20.072 110.631 20.072V25.072ZM128.935 52.912L124.757 55.6588C125.971 57.5048 128.252 58.3355 130.368 57.7021C132.485 57.0686 133.935 55.1212 133.935 52.912H128.935ZM128.935 25.072V20.072C126.173 20.072 123.935 22.3106 123.935 25.072H128.935ZM139.879 25.072H144.879C144.879 22.3106 142.64 20.072 139.879 20.072V25.072ZM139.879 70V65H128.935V70V75H139.879V70ZM128.935 70L133.107 67.2443L114.803 39.5323L110.631 42.288L106.459 45.0437L124.763 72.7557L128.935 70ZM110.631 42.288H105.631V70H110.631H115.631V42.288H110.631ZM110.631 70V65H99.6868V70V75H110.631V70ZM99.6868 70H104.687V25.072H99.6868H94.6868V70H99.6868ZM99.6868 25.072V30.072H110.631V25.072V20.072H99.6868V25.072ZM110.631 25.072L106.453 27.8188L124.757 55.6588L128.935 52.912L133.113 50.1652L114.809 22.3252L110.631 25.072ZM128.935 52.912H133.935V25.072H128.935H123.935V52.912H128.935ZM128.935 25.072V30.072H139.879V25.072V20.072H128.935V25.072ZM139.879 25.072H134.879V70H139.879H144.879V25.072H139.879ZM177.06 27.888L179.402 23.4704L179.402 23.4704L177.06 27.888ZM185.252 35.824L180.894 38.2753C180.906 38.2969 180.918 38.3185 180.931 38.34L185.252 35.824ZM185.252 59.248L180.917 56.7556C180.909 56.7693 180.902 56.783 180.894 56.7967L185.252 59.248ZM176.996 67.184L174.676 62.7548C174.668 62.7587 174.661 62.7625 174.654 62.7664L176.996 67.184ZM147.812 70H142.812C142.812 72.7614 145.05 75 147.812 75V70ZM147.812 25.072V20.072C145.05 20.072 142.812 22.3106 142.812 25.072H147.812ZM158.756 34.416V29.416C155.994 29.416 153.756 31.6546 153.756 34.416H158.756ZM158.756 60.528H153.756C153.756 63.2894 155.994 65.528 158.756 65.528V60.528ZM164.644 25.072V30.072C168.711 30.072 172.018 30.8745 174.718 32.3056L177.06 27.888L179.402 23.4704C175.019 21.1468 170.048 20.072 164.644 20.072V25.072ZM177.06 27.888L174.718 32.3056C177.434 33.7454 179.455 35.7175 180.894 38.2753L185.252 35.824L189.61 33.3727C187.208 29.1038 183.768 25.7853 179.402 23.4704L177.06 27.888ZM185.252 35.824L180.931 38.34C182.39 40.8464 183.196 43.8587 183.196 47.536H188.196H193.196C193.196 42.3386 192.039 37.543 189.573 33.308L185.252 35.824ZM188.196 47.536H183.196C183.196 51.1599 182.395 54.1858 180.917 56.7556L185.252 59.248L189.586 61.7404C192.034 57.4835 193.196 52.7015 193.196 47.536H188.196ZM185.252 59.248L180.894 56.7967C179.464 59.3387 177.433 61.3103 174.676 62.7548L176.996 67.184L179.316 71.6132C183.726 69.303 187.199 65.984 189.61 61.6993L185.252 59.248ZM176.996 67.184L174.654 62.7664C171.948 64.2008 168.66 65 164.644 65V70V75C170.014 75 174.961 73.9219 179.338 71.6016L176.996 67.184ZM164.644 70V65H147.812V70V75H164.644V70ZM147.812 70H152.812V25.072H147.812H142.812V70H147.812ZM147.812 25.072V30.072H164.644V25.072V20.072H147.812V25.072ZM163.94 60.528V65.528C169.003 65.528 173.624 64.1221 177.106 60.7044L173.604 57.136L170.101 53.5676C168.976 54.6726 167.154 55.528 163.94 55.528V60.528ZM173.604 57.136L177.106 60.7044C180.619 57.2568 182.06 52.6194 182.06 47.536H177.06H172.06C172.06 50.73 171.197 52.4926 170.101 53.5676L173.604 57.136ZM177.06 47.536H182.06C182.06 42.4477 180.617 37.8144 177.139 34.3365L173.604 37.872L170.068 41.4075C171.198 42.5376 172.06 44.347 172.06 47.536H177.06ZM173.604 37.872L177.139 34.3365C173.661 30.8585 169.028 29.416 163.94 29.416V34.416V39.416C167.129 39.416 168.938 40.2775 170.068 41.4075L173.604 37.872ZM163.94 34.416V29.416H158.756V34.416V39.416H163.94V34.416ZM158.756 34.416H153.756V60.528H158.756H163.756V34.416H158.756ZM158.756 60.528V65.528H163.94V60.528V55.528H158.756V60.528ZM232.84 25.072L237.281 27.3683C238.083 25.8183 238.018 23.9627 237.111 22.4722C236.203 20.9817 234.585 20.072 232.84 20.072V25.072ZM217.288 55.152L212.846 52.8557C212.479 53.5655 212.288 54.3529 212.288 55.152H217.288ZM217.288 70V75C220.049 75 222.288 72.7614 222.288 70H217.288ZM206.344 70H201.344C201.344 72.7614 203.582 75 206.344 75V70ZM206.344 55.152H211.344C211.344 54.3529 211.152 53.5655 210.785 52.8557L206.344 55.152ZM190.792 25.072V20.072C189.047 20.072 187.428 20.9817 186.521 22.4722C185.614 23.9627 185.549 25.8183 186.35 27.3683L190.792 25.072ZM203.208 25.072L207.746 22.9728C206.928 21.2042 205.156 20.072 203.208 20.072V25.072ZM211.912 43.888L207.374 45.9872C208.193 47.7581 209.968 48.8907 211.919 48.888C213.87 48.8853 215.641 47.7477 216.456 45.9745L211.912 43.888ZM220.552 25.072V20.072C218.598 20.072 216.823 21.21 216.008 22.9855L220.552 25.072ZM232.84 25.072L228.398 22.7757L212.846 52.8557L217.288 55.152L221.729 57.4483L237.281 27.3683L232.84 25.072ZM217.288 55.152H212.288V70H217.288H222.288V55.152H217.288ZM217.288 70V65H206.344V70V75H217.288V70ZM206.344 70H211.344V55.152H206.344H201.344V70H206.344ZM206.344 55.152L210.785 52.8557L195.233 22.7757L190.792 25.072L186.35 27.3683L201.902 57.4483L206.344 55.152ZM190.792 25.072V30.072H203.208V25.072V20.072H190.792V25.072ZM203.208 25.072L198.67 27.1712L207.374 45.9872L211.912 43.888L216.45 41.7888L207.746 22.9728L203.208 25.072ZM211.912 43.888L216.456 45.9745L225.096 27.1585L220.552 25.072L216.008 22.9855L207.368 41.8015L211.912 43.888ZM220.552 25.072V30.072H232.84V25.072V20.072H220.552V25.072Z" fill="black" mask="url(#path-9-outside-5_3_128)"/>
<g clip-path="url(#clip0_3_128)">
<path d="M189.013 133.299C183.259 133.299 177.845 131.897 173.049 129.46L220.457 82.0366C222.897 86.8352 224.3 92.2533 224.3 98.0104C224.3 117.515 208.518 133.299 189.013 133.299Z" fill="#EE746C"/>
<path d="M170.589 128.077C165.842 125.164 161.853 121.167 158.942 116.418L207.42 67.9401C212.169 70.8507 216.165 74.8399 219.078 79.5878L170.589 128.077Z" fill="white"/>
<path d="M157.558 113.953C155.127 109.162 153.725 103.756 153.725 98.0108C153.725 78.5059 169.508 62.7226 189.013 62.7233C194.758 62.7233 200.163 64.1253 204.955 66.5564L157.558 113.953V113.953Z" fill="#EE746C"/>
<path d="M172.574 124.837C168.338 122.238 164.778 118.672 162.181 114.435L205.437 71.1788C209.674 73.776 213.24 77.3357 215.839 81.5721L172.574 124.837Z" fill="#EBFEFF"/>
<path d="M208.97 86.7489L213.038 82.6811L211.114 80.7573L207.046 84.825L208.97 86.7489Z" fill="black"/>
<path d="M202.859 92.8603L206.926 88.7925L205.003 86.8687L200.935 90.9368L202.859 92.8603Z" fill="black"/>
<path d="M190.636 105.083L194.723 100.996L192.8 99.092L188.732 103.16L190.636 105.083Z" fill="black"/>
<path d="M196.747 98.9717L200.815 94.9036L198.911 92.9801L194.823 97.0479L196.747 98.9717Z" fill="black"/>
<path d="M215.082 80.6369L219.149 76.5692L217.226 74.6457L213.158 78.7333L215.082 80.6366V80.6369Z" fill="black"/>
<path d="M184.544 111.175L188.612 107.107L186.688 105.183L182.62 109.271L184.544 111.174V111.175Z" fill="black"/>
<path d="M178.433 117.286L182.5 113.219L180.576 111.295L176.509 115.363L178.433 117.286Z" fill="black"/>
<path d="M172.321 123.398L176.389 119.33L174.465 117.406L170.397 121.474L172.321 123.398Z" fill="black"/>
<path d="M166.891 128.828L170.277 125.442L168.374 123.518L164.967 126.904L166.891 128.828Z" fill="black"/>
<path d="M202.177 79.9764L206.245 75.8884L204.341 73.9847L200.254 78.0528L202.177 79.9767V79.9764Z" fill="black"/>
<path d="M196.066 86.0675L200.154 81.9998L198.23 80.0759L194.162 84.1639L196.066 86.0672V86.0675Z" fill="black"/>
<path d="M183.863 98.2905L187.93 94.2228L186.007 92.2989L181.939 96.3667L183.863 98.2905Z" fill="black"/>
<path d="M189.974 92.179L194.042 88.1112L192.118 86.1873L188.051 90.2554L189.974 92.179Z" fill="black"/>
<path d="M208.289 73.8644L212.357 69.7963L210.433 67.8728L206.365 71.9405L208.289 73.8644Z" fill="black"/>
<path d="M177.751 104.402L181.819 100.334L179.895 98.4103L175.828 102.478L177.751 104.402Z" fill="black"/>
<path d="M171.64 110.514L175.707 106.426L173.804 104.522L169.716 108.59L171.64 110.514V110.514H171.64Z" fill="black"/>
<path d="M165.528 116.605L169.616 112.537L167.692 110.614L163.625 114.701L165.528 116.605Z" fill="black"/>
<path d="M160.098 122.035L163.505 118.649L161.581 116.725L158.194 120.132L160.098 122.035L160.098 122.035Z" fill="black"/>
<path d="M189.972 130.754C207.54 130.754 221.756 116.538 221.756 98.97C221.756 93.7844 220.491 88.9038 218.294 84.5816L175.594 127.297C179.914 129.492 184.79 130.754 189.972 130.754Z" fill="#FB9761"/>
<path d="M187.199 128.347C186.45 128.347 185.842 127.74 185.842 126.99C185.842 126.241 186.45 125.633 187.199 125.633C187.949 125.633 188.557 126.241 188.557 126.99C188.556 127.74 187.949 128.347 187.199 128.347Z" fill="white"/>
<path d="M192.347 127.801C191.6 127.836 190.966 127.258 190.932 126.511C190.925 126.361 190.943 126.211 190.985 126.067C191.138 125.53 191.606 125.143 192.162 125.091C196.104 124.661 198.987 123.792 201.742 120.734C202.244 120.176 203.103 120.131 203.661 120.633C204.219 121.135 204.264 121.994 203.762 122.552C200.519 126.153 196.69 127.329 192.464 127.79C192.425 127.792 192.386 127.792 192.347 127.79L192.347 127.801Z" fill="white"/>
<path d="M159.598 111.554C157.395 107.211 156.124 102.312 156.124 97.105C156.124 79.427 170.428 65.122 188.107 65.1223C193.314 65.1223 198.213 66.3934 202.555 68.5967L159.598 111.554V111.554Z" fill="#FB9761"/>
<path d="M191.916 135.888C200.854 135.2 209.552 131.362 216.219 124.521C229.552 110.84 230.649 89.3577 218.78 74.3886C206.91 59.4192 185.74 55.5919 169.379 65.455C168.729 65.8287 168.505 66.6585 168.879 67.3083C169.253 67.9584 170.083 68.182 170.733 67.8079C170.75 67.7979 170.767 67.7877 170.784 67.777C185.994 58.6076 205.62 62.1581 216.654 76.0741C227.688 89.9899 226.669 109.909 214.273 122.628C201.878 135.346 181.995 136.878 167.799 126.206C153.603 115.534 149.545 96.0049 158.32 80.5643C158.706 79.9221 158.499 79.0881 157.857 78.7015C157.214 78.3148 156.38 78.5218 155.994 79.1645C155.982 79.1836 155.971 79.2033 155.96 79.2232C146.522 95.8325 150.896 116.895 166.166 128.375C173.801 134.115 182.979 136.576 191.916 135.887L191.916 135.888Z" fill="black"/>
<path d="M159.878 77.0501C160.325 77.0671 160.751 76.8628 161.018 76.5044C162.436 74.6584 164.032 72.9566 165.784 71.4253C166.367 70.9542 166.458 70.0993 165.987 69.5164C165.515 68.9334 164.661 68.8427 164.078 69.3143C164.05 69.3365 164.023 69.3598 163.998 69.3842C162.11 71.0334 160.392 72.8624 158.866 74.8502C158.4 75.4374 158.498 76.2913 159.085 76.7572C159.312 76.9368 159.59 77.0395 159.878 77.0505V77.0501Z" fill="black"/>
<path d="M219.893 78.7891L169.808 128.842L171.728 130.767L221.812 80.7082L219.893 78.7891Z" fill="black"/>
<path d="M206.745 64.7715L156.66 114.824L158.579 116.749L208.664 66.6906L206.745 64.7715Z" fill="black"/>
</g>
<defs>
<clipPath id="clip0_3_128">
<rect width="76" height="76" fill="white" transform="translate(151 60)"/>
</clipPath>
</defs>
</svg>
