<?xml version="1.0" encoding="iso-8859-1"?>
<!-- Uploaded to: SVG Repo, www.svgrepo.com, Generator: SVG Repo Mixer Tools -->
<svg height="800px" width="800px" version="1.1" id="Layer_1" xmlns="http://www.w3.org/2000/svg" xmlns:xlink="http://www.w3.org/1999/xlink" 
	 viewBox="0 0 480 480" xml:space="preserve">
<g transform="translate(0 -1020.36)" shape-rendering="auto" image-rendering="auto" color-rendering="auto" color-interpolation="sRGB">
	<path style="fill:#29A3EC;" d="M208.016,1099.823c106.41,0,192.547,86.137,192.547,192.547
		c0,106.41-86.138,192.547-192.547,192.547S15.587,1398.78,15.587,1292.37C15.587,1185.96,101.606,1099.823,208.016,1099.823z"/>
	<path style="fill:#3CDEF6;" d="M208.009,1112.307c-99.506,0-179.937,80.557-179.938,180.063
		c0,99.506,80.431,180.063,179.938,180.063c99.506,0,180.062-80.557,180.062-180.063S307.515,1112.307,208.009,1112.307
		L208.009,1112.307z"/>
	<g>
		<path style="fill:#FFFFFF;" d="M69.009,1210.274c3.314-0.055,6.044,2.588,6.098,5.902c0.018,1.074-0.254,2.133-0.785,3.066
			c-16.427,30.076-22.265,64.834-16.531,98.625c0.725,3.234-1.308,6.443-4.542,7.168c-3.234,0.727-6.443-1.309-7.168-4.541
			c-0.044-0.197-0.078-0.396-0.102-0.596c-6.184-36.447-0.003-73.996,17.719-106.438
			C64.739,1211.497,66.784,1210.27,69.009,1210.274L69.009,1210.274z"/>
		<path style="fill:#FFFFFF;" d="M56.727,1333.557c3.314,0,6,2.686,6,6l0,0c-0.001,3.313-2.687,5.998-6,5.998s-5.999-2.686-6-5.998
			C50.727,1336.243,53.413,1333.557,56.727,1333.557C56.727,1333.557,56.727,1333.557,56.727,1333.557z"/>
		<path style="fill:#FFFFFF;" d="M208.047,1180.337c61.968,0,112,50.031,112,112c0,61.969-50.032,112-112,112s-112-50.031-112-112
			C96.047,1230.368,146.079,1180.337,208.047,1180.337z"/>
	</g>
	<path style="fill:#EBFEFF;" d="M208.047,1192.337c55.329,0,100,44.672,100,100c0,55.328-44.671,100-100,100s-100-44.672-100-100
		C108.047,1237.006,152.718,1192.337,208.047,1192.337L208.047,1192.337z"/>
	<path style="fill:#5A3392;" d="M208.047,1236.337c-30.842,0-56,25.158-56,56s25.158,56,56,56c30.842,0,56-25.158,56-56
		S238.889,1236.337,208.047,1236.337z"/>
	<g>
		<path style="fill:#EE746C;" d="M207.988,1252.337c22.197,0,40.059,17.836,40.059,40s-17.862,40-40.059,40
			c-22.197,0-39.941-17.836-39.941-40S185.791,1252.337,207.988,1252.337z"/>
		<path style="fill:#EE746C;" d="M424.274,1045.907v4.837c0,13.831,11.355,25.187,25.186,25.187h4.963l-25.186,25.186h-21.712
			c-4.734,0-8.437-3.574-8.437-8.314v-21.713l25.186-25.186L424.274,1045.907z"/>
	</g>
	<path style="fill:#FB9761;" d="M208,1260.337c17.758,0,32.047,14.27,32.047,32s-14.29,32-32.047,32
		c-17.757,0-31.953-14.27-31.953-32S190.242,1260.337,208,1260.337L208,1260.337z"/>
	<g>
		<path style="fill:#5A3392;" d="M395.102,1096.305c-1.797,0.23-3.463,1.064-4.725,2.365l-179.882,180
			c-3.345,2.887-3.717,7.939-0.831,11.285c2.887,3.344,7.939,3.717,11.284,0.83c0.318-0.275,0.614-0.574,0.885-0.895
			l179.882-179.881c3.19-3.059,3.296-8.123,0.238-11.313c-1.77-1.846-4.317-2.734-6.852-2.391L395.102,1096.305z"/>
		<path style="fill:#FB9761;" d="M426.422,1053.553v3.374c0,9.64,7.913,17.554,17.552,17.554h3.459l-17.552,17.553H414.75
			c-3.299,0-5.88-2.49-5.88-5.793v-15.131l17.552-17.552L426.422,1053.553z"/>
		<path style="fill:#5A3392;" d="M431.821,1020.369c-2.034,0.066-3.967,0.904-5.406,2.344l-40.063,40.062
			c-1.469,1.471-2.309,3.453-2.344,5.531v24.094c0,13.166,10.927,24,24.094,24h23.969c2.126-0.01,4.161-0.865,5.656-2.377
			l39.937-40.031c3.082-3.176,3.006-8.25-0.17-11.332c-1.48-1.436-3.456-2.245-5.517-2.262h-23.969
			c-4.506,0-7.906-3.526-7.906-8.032v-23.968c0.013-4.426-3.564-8.023-7.99-8.037c-0.097,0-0.194,0.002-0.291,0.005
			L431.821,1020.369z M424.04,1047.775v4.594c0,13.167,10.802,23.968,23.969,23.968h4.719l-23.969,24h-20.656
			c-4.506,0-8.031-3.428-8.031-7.936v-20.658L424.04,1047.775z"/>
	</g>
	<g>
		<path style="fill:#5A3392;" d="M214.313,1084.436c-76.527-2.246-150.923,38.059-189.281,109.125
			c-51.145,94.756-21.424,213.084,68.438,272.406s210.34,40.172,277.375-44.094c2.753-3.461,2.179-8.498-1.281-11.25
			s-8.497-2.18-11.25,1.281c-61.964,77.889-172.967,95.521-256.031,40.688c-83.064-54.836-110.432-163.82-63.156-251.406
			c47.276-87.588,153.42-124.535,244.844-85.189c91.424,39.348,137.578,141.832,106.469,236.377
			c-1.383,4.201,0.903,8.729,5.104,10.111s8.729-0.902,10.112-5.104c0.001-0.002,0.002-0.006,0.002-0.008
			c33.655-102.281-16.469-213.496-115.375-256.063C265.556,1090.671,239.823,1085.184,214.313,1084.436z"/>
		<path style="fill:#5A3392;" d="M389.907,1367.905c-3.207-0.051-6.135,1.818-7.438,4.75c-3.347,7.27-7.147,14.328-11.375,21.125
			c-2.346,3.748-1.209,8.689,2.54,11.037c3.749,2.346,8.69,1.209,11.037-2.541c0.006-0.008,0.012-0.018,0.018-0.027
			c4.58-7.363,8.686-15.031,12.313-22.906c1.899-3.99,0.203-8.764-3.787-10.662C392.18,1368.188,391.052,1367.924,389.907,1367.905z
			"/>
		<path style="fill:#5A3392;" d="M216.063,1164.592c-15.235-0.961-30.87,0.783-46.187,5.563
			c-61.269,19.143-98.942,80.885-87.938,144.125c0.747,4.359,4.886,7.289,9.247,6.543s7.289-4.887,6.543-9.246
			c-0.003-0.016-0.005-0.031-0.008-0.047c-9.649-55.447,23.216-109.309,76.938-126.094c53.721-16.783,111.397,8.795,135.031,59.875
			s5.787,111.605-41.781,141.686c-47.569,30.084-109.919,20.25-145.938-23c-2.758-3.453-7.792-4.016-11.245-1.258
			c-3.453,2.758-4.016,7.791-1.258,11.244c0.072,0.09,0.146,0.18,0.222,0.266c41.079,49.324,112.529,60.588,166.781,26.279
			c54.252-34.307,74.705-103.68,47.75-161.936C304.004,1194.899,261.77,1167.491,216.063,1164.592z"/>
		<path style="fill:#5A3392;" d="M96.157,1327.374c-4.418-0.074-8.059,3.449-8.133,7.867c-0.018,1.061,0.176,2.115,0.57,3.102
			c1.946,5.051,4.212,9.986,6.781,14.75c2.097,3.893,6.952,5.348,10.844,3.25s5.347-6.951,3.25-10.844
			c-2.248-4.17-4.235-8.486-5.938-12.906C102.385,1329.499,99.456,1327.426,96.157,1327.374z"/>
	</g>
</g>
</svg>